STARTFONT 2.1
FONT -Adobe-Times-Bold-I-Normal--17-120-100-100-P-86-ISO10646-1
SIZE 12 100 100
FONTBOUNDINGBOX 21 25 -3 -6
COMMENT $XFree86$
COMMENT ISO10646-1 extension by Markus Kuhn <mkuhn@acm.org>, 2001-03-20
COMMENT 
COMMENT +
COMMENT  Copyright 1984-1989, 1994 Adobe Systems Incorporated.
COMMENT  Copyright 1988, 1994 Digital Equipment Corporation.
COMMENT
COMMENT  Adobe is a trademark of Adobe Systems Incorporated which may be
COMMENT  registered in certain jurisdictions.
COMMENT  Permission to use these trademarks is hereby granted only in
COMMENT  association with the images described in this file.
COMMENT
COMMENT  Permission to use, copy, modify, distribute and sell this software
COMMENT  and its documentation for any purpose and without fee is hereby
COMMENT  granted, provided that the above copyright notices appear in all
COMMENT  copies and that both those copyright notices and this permission
COMMENT  notice appear in supporting documentation, and that the names of
COMMENT  Adobe Systems and Digital Equipment Corporation not be used in
COMMENT  advertising or publicity pertaining to distribution of the software
COMMENT  without specific, written prior permission.  Adobe Systems and
COMMENT  Digital Equipment Corporation make no representations about the
COMMENT  suitability of this software for any purpose.  It is provided "as
COMMENT  is" without express or implied warranty.
COMMENT -
STARTPROPERTIES 26
FOUNDRY "Adobe"
FAMILY_NAME "Times"
WEIGHT_NAME "Bold"
SLANT "I"
SETWIDTH_NAME "Normal"
ADD_STYLE_NAME ""
PIXEL_SIZE 17
POINT_SIZE 120
RESOLUTION_X 100
RESOLUTION_Y 100
SPACING "P"
AVERAGE_WIDTH 86
CHARSET_REGISTRY "ISO10646"
CHARSET_ENCODING "1"
CAP_HEIGHT 11
X_HEIGHT 8
FONT_ASCENT 13
FONT_DESCENT 3
FACE_NAME "Times Bold Italic"
COPYRIGHT "Copyright (c) 1984, 1987 Adobe Systems Incorporated. All Rights Reserved. Copyright (c) 1988, 1991 Digital Equipment Corporation. All Rights Reserved."

STARTCHAR char0
ENCODING 0
SWIDTH 778 0
DWIDTH 13 0
BBX 13 11 0 0
BITMAP
AAA8
0000
8008
0000
8008
0000
8008
0000
8008
0000
AAA8
ENDCHAR
STARTCHAR space
ENCODING 32
SWIDTH 250 0
DWIDTH 4 0
BBX 1 1 0 0
BITMAP
00
ENDCHAR
STARTCHAR exclam
ENCODING 33
SWIDTH 389 0
DWIDTH 6 0
BBX 5 11 1 0
BITMAP
18
18
30
30
20
60
40
40
00
C0
C0
ENDCHAR
STARTCHAR quotedbl
ENCODING 34
SWIDTH 555 0
DWIDTH 9 0
BBX 5 5 3 6
BITMAP
48
48
D8
90
90
ENDCHAR
STARTCHAR numbersign
ENCODING 35
SWIDTH 500 0
DWIDTH 8 0
BBX 8 11 0 0
BITMAP
12
12
12
FF
24
24
24
FF
48
48
48
ENDCHAR
STARTCHAR dollar
ENCODING 36
SWIDTH 500 0
DWIDTH 8 0
BBX 8 13 0 -1
BITMAP
02
1E
25
65
68
78
3C
1E
16
A6
A4
78
40
ENDCHAR
STARTCHAR percent
ENCODING 37
SWIDTH 833 0
DWIDTH 13 0
BBX 11 11 1 0
BITMAP
3080
6F80
C900
CA00
D200
64C0
05A0
0B20
0B20
1340
1180
ENDCHAR
STARTCHAR ampersand
ENCODING 38
SWIDTH 778 0
DWIDTH 13 0
BBX 11 11 1 0
BITMAP
0600
0900
1900
1A00
1C00
3CE0
4C40
CE80
C700
E720
79C0
ENDCHAR
STARTCHAR quotesingle
ENCODING 39
SWIDTH 278 0
DWIDTH 5 0
BBX 2 5 2 6
BITMAP
C0
C0
C0
80
80
ENDCHAR
STARTCHAR parenleft
ENCODING 40
SWIDTH 333 0
DWIDTH 6 0
BBX 5 14 0 -3
BITMAP
08
10
20
60
40
C0
C0
C0
C0
C0
40
40
20
20
ENDCHAR
STARTCHAR parenright
ENCODING 41
SWIDTH 333 0
DWIDTH 6 0
BBX 5 14 0 -3
BITMAP
20
20
10
10
18
18
18
18
18
10
30
20
40
80
ENDCHAR
STARTCHAR asterisk
ENCODING 42
SWIDTH 500 0
DWIDTH 8 0
BBX 5 7 2 4
BITMAP
20
A8
F8
70
F8
A8
20
ENDCHAR
STARTCHAR plus
ENCODING 43
SWIDTH 570 0
DWIDTH 10 0
BBX 7 8 1 1
BITMAP
10
10
10
FE
FE
10
10
10
ENDCHAR
STARTCHAR comma
ENCODING 44
SWIDTH 250 0
DWIDTH 4 0
BBX 3 5 0 -3
BITMAP
60
60
20
40
80
ENDCHAR
STARTCHAR hyphen
ENCODING 45
SWIDTH 333 0
DWIDTH 5 0
BBX 4 2 1 3
BITMAP
F0
F0
ENDCHAR
STARTCHAR period
ENCODING 46
SWIDTH 250 0
DWIDTH 4 0
BBX 2 2 1 0
BITMAP
C0
C0
ENDCHAR
STARTCHAR slash
ENCODING 47
SWIDTH 278 0
DWIDTH 5 0
BBX 5 12 0 0
BITMAP
08
10
10
10
20
20
20
40
40
40
80
80
ENDCHAR
STARTCHAR zero
ENCODING 48
SWIDTH 500 0
DWIDTH 8 0
BBX 8 11 0 0
BITMAP
0C
12
33
63
63
66
C6
C6
CC
48
30
ENDCHAR
STARTCHAR one
ENCODING 49
SWIDTH 500 0
DWIDTH 8 0
BBX 7 11 0 0
BITMAP
02
1E
06
0C
0C
08
18
18
30
30
F8
ENDCHAR
STARTCHAR two
ENCODING 50
SWIDTH 500 0
DWIDTH 8 0
BBX 8 11 -1 0
BITMAP
1E
27
23
03
02
04
08
10
21
7E
FC
ENDCHAR
STARTCHAR three
ENCODING 51
SWIDTH 500 0
DWIDTH 8 0
BBX 7 11 0 0
BITMAP
1C
2E
06
04
18
3C
0C
04
04
C8
70
ENDCHAR
STARTCHAR four
ENCODING 52
SWIDTH 500 0
DWIDTH 8 0
BBX 8 11 0 0
BITMAP
01
03
07
0E
16
26
4C
FF
FE
18
18
ENDCHAR
STARTCHAR five
ENCODING 53
SWIDTH 500 0
DWIDTH 8 0
BBX 8 11 0 0
BITMAP
1F
1E
30
60
7C
0E
06
06
06
CC
70
ENDCHAR
STARTCHAR six
ENCODING 54
SWIDTH 500 0
DWIDTH 8 0
BBX 8 11 0 0
BITMAP
03
0C
18
30
78
6C
C6
C6
C6
CC
78
ENDCHAR
STARTCHAR seven
ENCODING 55
SWIDTH 500 0
DWIDTH 8 0
BBX 8 11 1 0
BITMAP
7F
7E
84
0C
08
18
10
30
20
60
40
ENDCHAR
STARTCHAR eight
ENCODING 56
SWIDTH 500 0
DWIDTH 8 0
BBX 8 11 0 0
BITMAP
0E
13
31
33
3A
1C
6E
C6
C6
C4
78
ENDCHAR
STARTCHAR nine
ENCODING 57
SWIDTH 500 0
DWIDTH 8 0
BBX 8 11 0 0
BITMAP
1E
33
63
63
63
36
1E
0C
18
30
C0
ENDCHAR
STARTCHAR colon
ENCODING 58
SWIDTH 333 0
DWIDTH 5 0
BBX 3 7 1 0
BITMAP
60
60
00
00
00
C0
C0
ENDCHAR
STARTCHAR semicolon
ENCODING 59
SWIDTH 333 0
DWIDTH 5 0
BBX 4 10 0 -3
BITMAP
30
30
00
00
00
60
60
20
40
80
ENDCHAR
STARTCHAR less
ENCODING 60
SWIDTH 570 0
DWIDTH 10 0
BBX 8 7 1 1
BITMAP
07
1C
70
C0
70
1C
07
ENDCHAR
STARTCHAR equal
ENCODING 61
SWIDTH 570 0
DWIDTH 10 0
BBX 7 5 1 2
BITMAP
FE
FE
00
FE
FE
ENDCHAR
STARTCHAR greater
ENCODING 62
SWIDTH 570 0
DWIDTH 10 0
BBX 8 7 1 1
BITMAP
E0
38
0E
03
0E
38
E0
ENDCHAR
STARTCHAR question
ENCODING 63
SWIDTH 500 0
DWIDTH 8 0
BBX 6 11 1 0
BITMAP
38
4C
4C
0C
18
30
40
40
00
C0
C0
ENDCHAR
STARTCHAR at
ENCODING 64
SWIDTH 832 0
DWIDTH 14 0
BBX 14 13 0 -2
BITMAP
03C0
1C30
3008
61A4
6264
C664
CC44
CC48
CCC8
4DD0
6660
3018
0FE0
ENDCHAR
STARTCHAR A
ENCODING 65
SWIDTH 667 0
DWIDTH 11 0
BBX 11 11 -1 0
BITMAP
0080
0180
0380
0780
0580
0980
1180
1F80
2180
41C0
E3E0
ENDCHAR
STARTCHAR B
ENCODING 66
SWIDTH 667 0
DWIDTH 11 0
BBX 10 11 0 0
BITMAP
3F00
18C0
18C0
38C0
3180
3F00
3180
7180
6180
6300
FC00
ENDCHAR
STARTCHAR C
ENCODING 67
SWIDTH 667 0
DWIDTH 11 0
BBX 11 11 0 0
BITMAP
07A0
1840
3040
7000
6000
E000
E000
E000
6080
6100
1E00
ENDCHAR
STARTCHAR D
ENCODING 68
SWIDTH 722 0
DWIDTH 12 0
BBX 11 11 0 0
BITMAP
3F00
18C0
1860
3860
3060
3060
30C0
70C0
6080
6300
FC00
ENDCHAR
STARTCHAR E
ENCODING 69
SWIDTH 667 0
DWIDTH 11 0
BBX 10 11 0 0
BITMAP
3FC0
1840
1840
3800
3100
3F00
3200
7000
6080
6180
FF00
ENDCHAR
STARTCHAR F
ENCODING 70
SWIDTH 667 0
DWIDTH 11 0
BBX 10 11 0 0
BITMAP
3FC0
1840
1840
3800
3100
3F00
3200
7000
6000
6000
F000
ENDCHAR
STARTCHAR G
ENCODING 71
SWIDTH 722 0
DWIDTH 12 0
BBX 12 11 0 0
BITMAP
07A0
1860
3020
7000
6000
E1F0
E0E0
E0C0
60C0
61C0
1E00
ENDCHAR
STARTCHAR H
ENCODING 72
SWIDTH 778 0
DWIDTH 13 0
BBX 13 11 0 0
BITMAP
3EF8
1C70
1860
38E0
30E0
3FC0
30C0
71C0
6180
6180
F3C0
ENDCHAR
STARTCHAR I
ENCODING 73
SWIDTH 389 0
DWIDTH 6 0
BBX 6 11 0 0
BITMAP
3C
18
18
38
30
30
30
70
60
60
F0
ENDCHAR
STARTCHAR J
ENCODING 74
SWIDTH 500 0
DWIDTH 8 0
BBX 10 13 -2 -2
BITMAP
07C0
0380
0300
0300
0700
0600
0600
0600
0E00
0C00
CC00
D800
7000
ENDCHAR
STARTCHAR K
ENCODING 75
SWIDTH 667 0
DWIDTH 11 0
BBX 10 11 0 0
BITMAP
3DC0
1880
1900
3A00
3400
3E00
3600
7700
6300
6380
F3C0
ENDCHAR
STARTCHAR L
ENCODING 76
SWIDTH 611 0
DWIDTH 10 0
BBX 9 11 0 0
BITMAP
3E00
1800
1800
3800
3000
3000
3000
7000
6080
6180
FF00
ENDCHAR
STARTCHAR M
ENCODING 77
SWIDTH 889 0
DWIDTH 15 0
BBX 15 11 0 0
BITMAP
380E
181C
1C3C
1C3C
2C58
2C98
2E98
4738
4630
4430
E478
ENDCHAR
STARTCHAR N
ENCODING 78
SWIDTH 722 0
DWIDTH 12 0
BBX 12 11 0 0
BITMAP
3870
1820
1C20
3C20
2E40
2640
2740
43C0
4380
4180
E080
ENDCHAR
STARTCHAR O
ENCODING 79
SWIDTH 722 0
DWIDTH 12 0
BBX 10 11 1 0
BITMAP
0700
1880
30C0
70C0
60C0
E1C0
C180
C380
C300
4600
3800
ENDCHAR
STARTCHAR P
ENCODING 80
SWIDTH 611 0
DWIDTH 10 0
BBX 10 11 0 0
BITMAP
3F00
18C0
18C0
38C0
3180
3E00
3000
7000
6000
6000
F800
ENDCHAR
STARTCHAR Q
ENCODING 81
SWIDTH 722 0
DWIDTH 12 0
BBX 10 15 1 -4
BITMAP
0700
1880
30C0
70C0
60C0
C1C0
C180
C380
C300
4600
3800
2040
7080
7F00
8E00
ENDCHAR
STARTCHAR R
ENCODING 82
SWIDTH 667 0
DWIDTH 11 0
BBX 10 11 0 0
BITMAP
3F00
18C0
18C0
38C0
3180
3E00
3600
7700
6300
6300
F1C0
ENDCHAR
STARTCHAR S
ENCODING 83
SWIDTH 556 0
DWIDTH 9 0
BBX 8 11 0 0
BITMAP
1D
23
61
70
78
3C
1E
0E
86
C4
B8
ENDCHAR
STARTCHAR T
ENCODING 84
SWIDTH 611 0
DWIDTH 10 0
BBX 10 11 1 0
BITMAP
FFC0
CCC0
8C80
1C00
1800
1800
1800
3800
3000
3000
F800
ENDCHAR
STARTCHAR U
ENCODING 85
SWIDTH 722 0
DWIDTH 12 0
BBX 12 11 1 0
BITMAP
7CF0
3860
3040
7040
7080
6080
E080
C100
C100
C200
7C00
ENDCHAR
STARTCHAR V
ENCODING 86
SWIDTH 667 0
DWIDTH 11 0
BBX 10 11 1 0
BITMAP
F9C0
6080
6100
6100
7200
3200
3400
3400
3800
1800
1000
ENDCHAR
STARTCHAR W
ENCODING 87
SWIDTH 889 0
DWIDTH 15 0
BBX 15 11 0 0
BITMAP
FBEE
6184
6184
6188
73C8
32D0
34D0
34E0
38E0
1840
1040
ENDCHAR
STARTCHAR X
ENCODING 88
SWIDTH 667 0
DWIDTH 11 0
BBX 11 11 0 0
BITMAP
3CE0
1840
1C80
0D00
0E00
0600
0E00
1700
2300
4380
E7C0
ENDCHAR
STARTCHAR Y
ENCODING 89
SWIDTH 611 0
DWIDTH 10 0
BBX 9 11 1 0
BITMAP
F380
6100
7200
3400
3800
1800
1800
3000
3000
3000
F800
ENDCHAR
STARTCHAR Z
ENCODING 90
SWIDTH 611 0
DWIDTH 10 0
BBX 10 11 0 0
BITMAP
3FC0
6380
4300
0600
0E00
0C00
1800
3800
3080
7180
FF00
ENDCHAR
STARTCHAR bracketleft
ENCODING 91
SWIDTH 333 0
DWIDTH 6 0
BBX 7 15 -1 -3
BITMAP
0E
0C
0C
08
18
18
10
30
30
20
60
60
40
C0
E0
ENDCHAR
STARTCHAR backslash
ENCODING 92
SWIDTH 278 0
DWIDTH 5 0
BBX 5 12 1 0
BITMAP
80
40
40
40
20
20
20
10
10
10
08
08
ENDCHAR
STARTCHAR bracketright
ENCODING 93
SWIDTH 333 0
DWIDTH 6 0
BBX 7 15 -1 -3
BITMAP
0E
06
06
04
0C
0C
08
18
18
10
30
30
20
60
E0
ENDCHAR
STARTCHAR asciicircum
ENCODING 94
SWIDTH 570 0
DWIDTH 10 0
BBX 7 7 1 4
BITMAP
10
38
28
6C
44
C6
82
ENDCHAR
STARTCHAR underscore
ENCODING 95
SWIDTH 500 0
DWIDTH 8 0
BBX 8 1 -1 -2
BITMAP
FF
ENDCHAR
STARTCHAR grave
ENCODING 96
SWIDTH 333 0
DWIDTH 6 0
BBX 3 3 3 9
BITMAP
C0
40
20
ENDCHAR
STARTCHAR a
ENCODING 97
SWIDTH 500 0
DWIDTH 8 0
BBX 8 8 0 0
BITMAP
1B
66
66
C6
CC
CC
DD
76
ENDCHAR
STARTCHAR b
ENCODING 98
SWIDTH 500 0
DWIDTH 8 0
BBX 7 11 1 0
BITMAP
30
70
30
6C
76
66
C6
C4
CC
D8
60
ENDCHAR
STARTCHAR c
ENCODING 99
SWIDTH 444 0
DWIDTH 7 0
BBX 6 8 1 0
BITMAP
1C
2C
40
C0
C0
C0
C8
70
ENDCHAR
STARTCHAR d
ENCODING 100
SWIDTH 500 0
DWIDTH 8 0
BBX 8 11 0 0
BITMAP
03
07
03
0F
36
66
46
C6
CC
DD
66
ENDCHAR
STARTCHAR e
ENCODING 101
SWIDTH 444 0
DWIDTH 7 0
BBX 7 8 1 0
BITMAP
1C
66
44
C8
F0
C4
C8
70
ENDCHAR
STARTCHAR f
ENCODING 102
SWIDTH 333 0
DWIDTH 6 0
BBX 11 14 -3 -3
BITMAP
01C0
0360
0300
0300
0F80
0600
0600
0600
0C00
0C00
0C00
1800
D800
7000
ENDCHAR
STARTCHAR g
ENCODING 103
SWIDTH 500 0
DWIDTH 8 0
BBX 8 11 0 -3
BITMAP
1D
26
66
64
38
40
FC
7E
82
84
78
ENDCHAR
STARTCHAR h
ENCODING 104
SWIDTH 556 0
DWIDTH 9 0
BBX 8 11 1 0
BITMAP
30
70
30
66
6E
76
66
CC
CC
CD
CE
ENDCHAR
STARTCHAR i
ENCODING 105
SWIDTH 278 0
DWIDTH 5 0
BBX 4 11 1 0
BITMAP
30
30
00
60
E0
60
60
C0
C0
D0
E0
ENDCHAR
STARTCHAR j
ENCODING 106
SWIDTH 278 0
DWIDTH 5 0
BBX 7 14 -2 -3
BITMAP
06
06
00
04
1C
0C
0C
0C
18
18
18
18
D0
60
ENDCHAR
STARTCHAR k
ENCODING 107
SWIDTH 500 0
DWIDTH 8 0
BBX 7 11 1 0
BITMAP
30
70
30
66
64
68
70
D0
D8
DA
CC
ENDCHAR
STARTCHAR l
ENCODING 108
SWIDTH 278 0
DWIDTH 5 0
BBX 4 11 1 0
BITMAP
30
70
30
60
60
60
60
C0
C0
D0
60
ENDCHAR
STARTCHAR m
ENCODING 109
SWIDTH 778 0
DWIDTH 13 0
BBX 12 8 1 0
BITMAP
6EE0
F760
6660
6660
CCC0
CCC0
CCD0
CCE0
ENDCHAR
STARTCHAR n
ENCODING 110
SWIDTH 556 0
DWIDTH 9 0
BBX 8 8 1 0
BITMAP
66
EE
76
66
CC
CC
CD
CE
ENDCHAR
STARTCHAR o
ENCODING 111
SWIDTH 500 0
DWIDTH 8 0
BBX 8 8 0 0
BITMAP
0C
32
63
63
C6
C6
4C
30
ENDCHAR
STARTCHAR p
ENCODING 112
SWIDTH 500 0
DWIDTH 8 0
BBX 9 11 -1 -3
BITMAP
1B00
3D80
1980
1980
3100
3300
3600
7800
6000
6000
F000
ENDCHAR
STARTCHAR q
ENCODING 113
SWIDTH 500 0
DWIDTH 8 0
BBX 8 11 0 -3
BITMAP
1B
37
66
46
CE
CC
DC
6C
18
18
3C
ENDCHAR
STARTCHAR r
ENCODING 114
SWIDTH 389 0
DWIDTH 6 0
BBX 6 8 1 0
BITMAP
6C
F4
60
60
C0
C0
C0
C0
ENDCHAR
STARTCHAR s
ENCODING 115
SWIDTH 389 0
DWIDTH 6 0
BBX 6 8 0 0
BITMAP
34
6C
64
70
38
98
D8
B0
ENDCHAR
STARTCHAR t
ENCODING 116
SWIDTH 278 0
DWIDTH 5 0
BBX 5 10 1 0
BITMAP
10
30
F8
60
60
60
C0
C0
D0
60
ENDCHAR
STARTCHAR u
ENCODING 117
SWIDTH 556 0
DWIDTH 9 0
BBX 8 8 1 0
BITMAP
66
E6
66
66
CC
CC
DD
6E
ENDCHAR
STARTCHAR v
ENCODING 118
SWIDTH 444 0
DWIDTH 7 0
BBX 6 8 1 0
BITMAP
4C
EC
64
68
68
70
60
40
ENDCHAR
STARTCHAR w
ENCODING 119
SWIDTH 667 0
DWIDTH 11 0
BBX 10 8 1 0
BITMAP
64C0
E4C0
6440
6E80
7680
6700
4600
4400
ENDCHAR
STARTCHAR x
ENCODING 120
SWIDTH 500 0
DWIDTH 8 0
BBX 8 8 0 0
BITMAP
63
35
38
18
18
3C
AD
C6
ENDCHAR
STARTCHAR y
ENCODING 121
SWIDTH 444 0
DWIDTH 7 0
BBX 8 11 -1 -3
BITMAP
13
39
19
1A
1A
1C
0C
08
10
A0
C0
ENDCHAR
STARTCHAR z
ENCODING 122
SWIDTH 389 0
DWIDTH 6 0
BBX 7 9 0 -1
BITMAP
3E
7C
48
10
20
60
F0
34
18
ENDCHAR
STARTCHAR braceleft
ENCODING 123
SWIDTH 348 0
DWIDTH 6 0
BBX 6 15 0 -3
BITMAP
04
08
18
18
10
30
20
C0
40
40
C0
C0
80
80
40
ENDCHAR
STARTCHAR bar
ENCODING 124
SWIDTH 220 0
DWIDTH 4 0
BBX 1 12 1 0
BITMAP
80
80
80
80
80
80
80
80
80
80
80
80
ENDCHAR
STARTCHAR braceright
ENCODING 125
SWIDTH 348 0
DWIDTH 6 0
BBX 6 15 -1 -3
BITMAP
08
04
04
0C
0C
08
08
0C
10
30
20
60
60
40
80
ENDCHAR
STARTCHAR asciitilde
ENCODING 126
SWIDTH 570 0
DWIDTH 10 0
BBX 8 3 1 3
BITMAP
70
BD
0E
ENDCHAR
STARTCHAR space
ENCODING 160
SWIDTH 250 0
DWIDTH 4 0
BBX 1 1 0 0
BITMAP
00
ENDCHAR
STARTCHAR exclamdown
ENCODING 161
SWIDTH 389 0
DWIDTH 6 0
BBX 5 12 0 -4
BITMAP
18
18
00
00
10
10
30
20
60
60
C0
C0
ENDCHAR
STARTCHAR cent
ENCODING 162
SWIDTH 500 0
DWIDTH 8 0
BBX 7 12 0 -2
BITMAP
02
02
0C
36
66
48
C8
D0
D4
78
20
20
ENDCHAR
STARTCHAR sterling
ENCODING 163
SWIDTH 500 0
DWIDTH 8 0
BBX 9 11 -1 0
BITMAP
0300
0580
0D00
0C00
1800
7E00
1800
1800
7100
9E00
6C00
ENDCHAR
STARTCHAR currency
ENCODING 164
SWIDTH 500 0
DWIDTH 8 0
BBX 7 8 1 1
BITMAP
BA
7C
C6
82
82
C6
7C
BA
ENDCHAR
STARTCHAR yen
ENCODING 165
SWIDTH 500 0
DWIDTH 8 0
BBX 9 11 0 0
BITMAP
FB80
7100
3200
3200
3400
3800
FC00
3000
FC00
3000
7800
ENDCHAR
STARTCHAR brokenbar
ENCODING 166
SWIDTH 220 0
DWIDTH 4 0
BBX 1 12 1 0
BITMAP
80
80
80
80
80
00
00
80
80
80
80
80
ENDCHAR
STARTCHAR section
ENCODING 167
SWIDTH 500 0
DWIDTH 8 0
BBX 7 14 0 -3
BITMAP
1C
26
26
30
38
3C
4C
64
78
38
18
C8
C8
70
ENDCHAR
STARTCHAR dieresis
ENCODING 168
SWIDTH 333 0
DWIDTH 6 0
BBX 6 2 2 9
BITMAP
CC
CC
ENDCHAR
STARTCHAR copyright
ENCODING 169
SWIDTH 747 0
DWIDTH 12 0
BBX 12 11 0 0
BITMAP
0F00
30C0
4720
48A0
9810
9810
9810
48A0
4720
30C0
0F00
ENDCHAR
STARTCHAR ordfeminine
ENCODING 170
SWIDTH 266 0
DWIDTH 4 0
BBX 4 7 0 4
BITMAP
30
50
90
B0
50
00
F0
ENDCHAR
STARTCHAR guillemotleft
ENCODING 171
SWIDTH 500 0
DWIDTH 8 0
BBX 7 6 0 1
BITMAP
12
36
6C
D8
6C
24
ENDCHAR
STARTCHAR logicalnot
ENCODING 172
SWIDTH 606 0
DWIDTH 10 0
BBX 7 4 2 1
BITMAP
FE
FE
02
02
ENDCHAR
STARTCHAR hyphen
ENCODING 173
SWIDTH 333 0
DWIDTH 5 0
BBX 4 2 1 3
BITMAP
F0
F0
ENDCHAR
STARTCHAR registered
ENCODING 174
SWIDTH 747 0
DWIDTH 12 0
BBX 12 11 0 0
BITMAP
0F00
30C0
5E20
4920
8910
8E10
8A10
4920
4D20
30C0
0F00
ENDCHAR
STARTCHAR macron
ENCODING 175
SWIDTH 333 0
DWIDTH 6 0
BBX 6 1 0 9
BITMAP
FC
ENDCHAR
STARTCHAR degree
ENCODING 176
SWIDTH 400 0
DWIDTH 7 0
BBX 5 5 1 6
BITMAP
70
88
88
88
70
ENDCHAR
STARTCHAR plusminus
ENCODING 177
SWIDTH 570 0
DWIDTH 10 0
BBX 7 10 1 0
BITMAP
10
10
10
FE
FE
10
10
00
FE
FE
ENDCHAR
STARTCHAR twosuperior
ENCODING 178
SWIDTH 300 0
DWIDTH 5 0
BBX 5 7 0 4
BITMAP
30
58
18
10
20
48
F0
ENDCHAR
STARTCHAR threesuperior
ENCODING 179
SWIDTH 300 0
DWIDTH 5 0
BBX 5 7 0 4
BITMAP
30
48
38
10
90
B0
60
ENDCHAR
STARTCHAR acute
ENCODING 180
SWIDTH 333 0
DWIDTH 6 0
BBX 3 3 3 9
BITMAP
60
40
80
ENDCHAR
STARTCHAR mu
ENCODING 181
SWIDTH 576 0
DWIDTH 9 0
BBX 9 11 0 -3
BITMAP
3300
7300
3300
3300
6600
6600
6E80
7700
4000
C000
8000
ENDCHAR
STARTCHAR paragraph
ENCODING 182
SWIDTH 500 0
DWIDTH 8 0
BBX 8 14 0 -3
BITMAP
1F
3A
7A
F6
F4
F4
6C
28
68
58
D0
B0
A0
A0
ENDCHAR
STARTCHAR periodcentered
ENCODING 183
SWIDTH 250 0
DWIDTH 4 0
BBX 2 2 1 3
BITMAP
C0
C0
ENDCHAR
STARTCHAR cedilla
ENCODING 184
SWIDTH 333 0
DWIDTH 6 0
BBX 5 4 0 -3
BITMAP
20
30
88
70
ENDCHAR
STARTCHAR onesuperior
ENCODING 185
SWIDTH 300 0
DWIDTH 5 0
BBX 4 7 0 4
BITMAP
30
10
30
20
60
40
E0
ENDCHAR
STARTCHAR ordmasculine
ENCODING 186
SWIDTH 300 0
DWIDTH 5 0
BBX 4 7 1 4
BITMAP
30
50
90
A0
C0
00
F0
ENDCHAR
STARTCHAR guillemotright
ENCODING 187
SWIDTH 500 0
DWIDTH 8 0
BBX 7 6 0 1
BITMAP
48
6C
36
6C
D8
90
ENDCHAR
STARTCHAR onequarter
ENCODING 188
SWIDTH 750 0
DWIDTH 13 0
BBX 11 11 0 0
BITMAP
3080
1100
3100
2200
6220
4460
E4E0
0940
0A40
13E0
1080
ENDCHAR
STARTCHAR onehalf
ENCODING 189
SWIDTH 750 0
DWIDTH 13 0
BBX 12 11 0 0
BITMAP
3080
1100
3100
2200
6260
44B0
E430
0820
0840
1090
11E0
ENDCHAR
STARTCHAR threequarters
ENCODING 190
SWIDTH 750 0
DWIDTH 13 0
BBX 11 11 1 0
BITMAP
3040
4880
3900
1100
9220
B460
64E0
0940
1240
13E0
2080
ENDCHAR
STARTCHAR questiondown
ENCODING 191
SWIDTH 500 0
DWIDTH 8 0
BBX 6 12 1 -4
BITMAP
0C
0C
00
08
08
30
60
C0
C0
C8
C8
70
ENDCHAR
STARTCHAR Agrave
ENCODING 192
SWIDTH 667 0
DWIDTH 11 0
BBX 11 15 -1 0
BITMAP
0600
0200
0100
0000
0100
0100
0300
0780
0580
0980
1180
1F80
2180
41C0
E3E0
ENDCHAR
STARTCHAR Aacute
ENCODING 193
SWIDTH 667 0
DWIDTH 11 0
BBX 11 15 -1 0
BITMAP
00C0
0080
0100
0000
0100
0100
0300
0780
0580
0980
1180
1F80
2180
41C0
E3E0
ENDCHAR
STARTCHAR Acircumflex
ENCODING 194
SWIDTH 667 0
DWIDTH 11 0
BBX 11 15 -1 0
BITMAP
0080
01C0
0220
0000
0100
0100
0300
0780
0580
0980
1180
1F80
2180
41C0
E3E0
ENDCHAR
STARTCHAR Atilde
ENCODING 195
SWIDTH 667 0
DWIDTH 11 0
BBX 12 14 -1 0
BITMAP
0390
04E0
0000
0100
0100
0300
0780
0580
0980
1180
1F80
2180
41C0
E3E0
ENDCHAR
STARTCHAR Adieresis
ENCODING 196
SWIDTH 667 0
DWIDTH 11 0
BBX 11 14 -1 0
BITMAP
0660
0660
0000
0100
0100
0300
0780
0580
0980
1180
1F80
2180
41C0
E3E0
ENDCHAR
STARTCHAR Aring
ENCODING 197
SWIDTH 667 0
DWIDTH 11 0
BBX 11 15 -1 0
BITMAP
0180
0240
0180
0000
0100
0100
0300
0780
0580
0980
1180
1F80
2180
41C0
E3E0
ENDCHAR
STARTCHAR AE
ENCODING 198
SWIDTH 944 0
DWIDTH 15 0
BBX 16 11 -1 0
BITMAP
01FF
00E1
0160
02E4
04C4
08FC
1FC8
11C8
2182
4186
E3FC
ENDCHAR
STARTCHAR Ccedilla
ENCODING 199
SWIDTH 667 0
DWIDTH 11 0
BBX 11 14 0 -3
BITMAP
07A0
1840
3040
7000
6000
E000
E000
E000
6080
6100
1E00
0C00
2200
1C00
ENDCHAR
STARTCHAR Egrave
ENCODING 200
SWIDTH 667 0
DWIDTH 11 0
BBX 10 15 0 0
BITMAP
0C00
0400
0200
0000
3FC0
1840
1800
3900
3100
3F00
3200
7200
6080
6180
FF00
ENDCHAR
STARTCHAR Eacute
ENCODING 201
SWIDTH 667 0
DWIDTH 11 0
BBX 10 15 0 0
BITMAP
0180
0100
0200
0000
3FC0
1840
1800
3900
3100
3F00
3200
7200
6080
6180
FF00
ENDCHAR
STARTCHAR Ecircumflex
ENCODING 202
SWIDTH 667 0
DWIDTH 11 0
BBX 10 15 0 0
BITMAP
0200
0700
0880
0000
3FC0
1840
1800
3900
3100
3F00
3200
7200
6080
6180
FF00
ENDCHAR
STARTCHAR Edieresis
ENCODING 203
SWIDTH 667 0
DWIDTH 11 0
BBX 10 14 0 0
BITMAP
0CC0
0CC0
0000
3FC0
1840
1800
3900
3100
3F00
3200
7200
6080
6180
FF00
ENDCHAR
STARTCHAR Igrave
ENCODING 204
SWIDTH 389 0
DWIDTH 6 0
BBX 6 15 0 0
BITMAP
30
10
08
00
3C
18
18
38
30
30
30
70
60
60
F0
ENDCHAR
STARTCHAR Iacute
ENCODING 205
SWIDTH 389 0
DWIDTH 6 0
BBX 7 15 0 0
BITMAP
06
04
08
00
3C
18
18
38
30
30
30
70
60
60
F0
ENDCHAR
STARTCHAR Icircumflex
ENCODING 206
SWIDTH 389 0
DWIDTH 6 0
BBX 7 15 0 0
BITMAP
08
1C
22
00
3C
18
18
38
30
30
30
70
60
60
F0
ENDCHAR
STARTCHAR Idieresis
ENCODING 207
SWIDTH 389 0
DWIDTH 6 0
BBX 8 14 0 0
BITMAP
33
33
00
3C
18
18
38
30
30
30
70
60
60
F0
ENDCHAR
STARTCHAR Eth
ENCODING 208
SWIDTH 722 0
DWIDTH 12 0
BBX 11 11 0 0
BITMAP
3F00
18C0
1840
3860
3060
FC60
3060
60C0
60C0
6300
FC00
ENDCHAR
STARTCHAR Ntilde
ENCODING 209
SWIDTH 722 0
DWIDTH 12 0
BBX 12 14 0 0
BITMAP
0720
09C0
0000
3870
1820
1C20
3C20
2E40
2640
2740
43C0
4380
4180
E080
ENDCHAR
STARTCHAR Ograve
ENCODING 210
SWIDTH 722 0
DWIDTH 12 0
BBX 10 15 1 0
BITMAP
0600
0200
0100
0000
0700
1880
30C0
70C0
60C0
E1C0
C180
C380
C300
4600
3800
ENDCHAR
STARTCHAR Oacute
ENCODING 211
SWIDTH 722 0
DWIDTH 12 0
BBX 10 15 1 0
BITMAP
00C0
0080
0100
0000
0700
1880
30C0
70C0
60C0
E1C0
C180
C380
C300
4600
3800
ENDCHAR
STARTCHAR Ocircumflex
ENCODING 212
SWIDTH 722 0
DWIDTH 12 0
BBX 10 15 1 0
BITMAP
0100
0380
0440
0000
0700
1880
30C0
70C0
60C0
E1C0
C180
C380
C300
4600
3800
ENDCHAR
STARTCHAR Otilde
ENCODING 213
SWIDTH 722 0
DWIDTH 12 0
BBX 10 14 1 0
BITMAP
0E40
1380
0000
0700
1880
30C0
70C0
60C0
E1C0
C180
C380
C300
4600
3800
ENDCHAR
STARTCHAR Odieresis
ENCODING 214
SWIDTH 722 0
DWIDTH 12 0
BBX 10 14 1 0
BITMAP
0CC0
0CC0
0000
0700
1880
30C0
70C0
60C0
E1C0
C180
C380
C300
4600
3800
ENDCHAR
STARTCHAR multiply
ENCODING 215
SWIDTH 570 0
DWIDTH 10 0
BBX 8 9 1 0
BITMAP
81
C3
66
3C
18
3C
66
C3
81
ENDCHAR
STARTCHAR Oslash
ENCODING 216
SWIDTH 722 0
DWIDTH 12 0
BBX 10 14 1 -2
BITMAP
0080
0700
1980
32C0
62C0
64C0
C4C0
C980
C980
D300
5600
3800
2000
4000
ENDCHAR
STARTCHAR Ugrave
ENCODING 217
SWIDTH 722 0
DWIDTH 12 0
BBX 11 15 1 0
BITMAP
0600
0200
0100
0000
7CE0
3840
3040
7040
7080
6080
E080
C100
C100
C200
7C00
ENDCHAR
STARTCHAR Uacute
ENCODING 218
SWIDTH 722 0
DWIDTH 12 0
BBX 11 15 1 0
BITMAP
0180
0100
0200
0000
7CE0
3840
3040
7040
7080
6080
E080
C100
C100
C200
7C00
ENDCHAR
STARTCHAR Ucircumflex
ENCODING 219
SWIDTH 722 0
DWIDTH 12 0
BBX 11 15 1 0
BITMAP
0100
0380
0440
0000
7CE0
3840
3040
7040
7080
6080
E080
C100
C100
C200
7C00
ENDCHAR
STARTCHAR Udieresis
ENCODING 220
SWIDTH 722 0
DWIDTH 12 0
BBX 11 14 1 0
BITMAP
0CC0
0CC0
0000
7CE0
3840
3040
7040
7080
6080
E080
C100
C100
C200
7C00
ENDCHAR
STARTCHAR Yacute
ENCODING 221
SWIDTH 611 0
DWIDTH 10 0
BBX 9 15 1 0
BITMAP
0600
0400
0800
0000
F380
6100
7200
3400
3800
1800
1800
3000
3000
3000
F800
ENDCHAR
STARTCHAR Thorn
ENCODING 222
SWIDTH 611 0
DWIDTH 10 0
BBX 10 11 0 0
BITMAP
3C00
1800
1F00
38C0
30C0
30C0
3180
7E00
6000
6000
F000
ENDCHAR
STARTCHAR germandbls
ENCODING 223
SWIDTH 500 0
DWIDTH 8 0
BBX 12 15 -3 -3
BITMAP
00E0
0130
0330
0320
0240
06C0
0660
0660
0660
0C60
0C40
0D80
1800
D800
7000
ENDCHAR
STARTCHAR agrave
ENCODING 224
SWIDTH 500 0
DWIDTH 8 0
BBX 8 12 0 0
BITMAP
18
08
04
00
1B
66
66
C6
CC
CC
DD
76
ENDCHAR
STARTCHAR aacute
ENCODING 225
SWIDTH 500 0
DWIDTH 8 0
BBX 8 12 0 0
BITMAP
06
04
08
00
1B
66
66
C6
CC
CC
DD
76
ENDCHAR
STARTCHAR acircumflex
ENCODING 226
SWIDTH 500 0
DWIDTH 8 0
BBX 8 12 0 0
BITMAP
08
1C
22
00
1B
66
66
C6
CC
CC
DD
76
ENDCHAR
STARTCHAR atilde
ENCODING 227
SWIDTH 500 0
DWIDTH 8 0
BBX 8 11 0 0
BITMAP
1D
2E
00
1B
66
66
C6
CC
CC
DD
76
ENDCHAR
STARTCHAR adieresis
ENCODING 228
SWIDTH 500 0
DWIDTH 8 0
BBX 8 11 0 0
BITMAP
33
33
00
1B
66
66
C6
CC
CC
DD
76
ENDCHAR
STARTCHAR aring
ENCODING 229
SWIDTH 500 0
DWIDTH 8 0
BBX 8 12 0 0
BITMAP
0C
12
0C
00
1B
66
66
C6
CC
CC
DD
76
ENDCHAR
STARTCHAR ae
ENCODING 230
SWIDTH 722 0
DWIDTH 12 0
BBX 12 8 0 0
BITMAP
1AE0
6730
6620
C640
CF80
CE20
DE40
7380
ENDCHAR
STARTCHAR ccedilla
ENCODING 231
SWIDTH 444 0
DWIDTH 7 0
BBX 6 11 1 -3
BITMAP
1C
2C
40
C0
C0
C0
C8
70
30
88
70
ENDCHAR
STARTCHAR egrave
ENCODING 232
SWIDTH 444 0
DWIDTH 7 0
BBX 7 12 0 0
BITMAP
18
08
04
00
1C
26
44
C8
F0
C4
C8
70
ENDCHAR
STARTCHAR eacute
ENCODING 233
SWIDTH 444 0
DWIDTH 7 0
BBX 7 12 0 0
BITMAP
06
04
08
00
1C
26
44
C8
F0
C4
C8
70
ENDCHAR
STARTCHAR ecircumflex
ENCODING 234
SWIDTH 444 0
DWIDTH 7 0
BBX 7 12 0 0
BITMAP
08
1C
22
00
1C
26
44
C8
F0
C4
C8
70
ENDCHAR
STARTCHAR edieresis
ENCODING 235
SWIDTH 444 0
DWIDTH 7 0
BBX 8 11 0 0
BITMAP
33
33
00
1C
26
44
C8
F0
C4
C8
70
ENDCHAR
STARTCHAR igrave
ENCODING 236
SWIDTH 278 0
DWIDTH 5 0
BBX 4 12 1 0
BITMAP
60
20
10
00
60
E0
60
60
C0
C0
D0
E0
ENDCHAR
STARTCHAR iacute
ENCODING 237
SWIDTH 278 0
DWIDTH 5 0
BBX 4 12 1 0
BITMAP
30
20
40
00
60
E0
60
60
C0
C0
D0
E0
ENDCHAR
STARTCHAR icircumflex
ENCODING 238
SWIDTH 278 0
DWIDTH 5 0
BBX 5 12 1 0
BITMAP
20
70
88
00
60
E0
60
60
C0
C0
D0
E0
ENDCHAR
STARTCHAR idieresis
ENCODING 239
SWIDTH 278 0
DWIDTH 5 0
BBX 6 11 0 0
BITMAP
CC
CC
00
30
70
30
30
60
60
68
70
ENDCHAR
STARTCHAR eth
ENCODING 240
SWIDTH 500 0
DWIDTH 8 0
BBX 8 11 0 0
BITMAP
1A
0C
16
0E
33
63
63
C6
C6
4C
30
ENDCHAR
STARTCHAR ntilde
ENCODING 241
SWIDTH 556 0
DWIDTH 9 0
BBX 8 11 1 0
BITMAP
3A
5C
00
66
EE
76
66
CC
CC
CD
CE
ENDCHAR
STARTCHAR ograve
ENCODING 242
SWIDTH 500 0
DWIDTH 8 0
BBX 8 12 0 0
BITMAP
18
08
04
00
0C
32
63
63
C6
C6
4C
30
ENDCHAR
STARTCHAR oacute
ENCODING 243
SWIDTH 500 0
DWIDTH 8 0
BBX 8 12 0 0
BITMAP
03
02
04
00
0C
32
63
63
C6
C6
4C
30
ENDCHAR
STARTCHAR ocircumflex
ENCODING 244
SWIDTH 500 0
DWIDTH 8 0
BBX 8 12 0 0
BITMAP
04
0E
11
00
0C
32
63
63
C6
C6
4C
30
ENDCHAR
STARTCHAR otilde
ENCODING 245
SWIDTH 500 0
DWIDTH 8 0
BBX 8 11 0 0
BITMAP
1D
2E
00
0C
32
63
63
C6
C6
4C
30
ENDCHAR
STARTCHAR odieresis
ENCODING 246
SWIDTH 500 0
DWIDTH 8 0
BBX 9 11 0 0
BITMAP
1980
1980
0000
0C00
3200
6300
6300
C600
C600
4C00
3000
ENDCHAR
STARTCHAR divide
ENCODING 247
SWIDTH 570 0
DWIDTH 10 0
BBX 8 8 1 1
BITMAP
18
18
00
FF
FF
00
18
18
ENDCHAR
STARTCHAR oslash
ENCODING 248
SWIDTH 500 0
DWIDTH 8 0
BBX 8 12 0 -2
BITMAP
01
02
0E
36
6B
6B
D6
D6
6C
70
40
80
ENDCHAR
STARTCHAR ugrave
ENCODING 249
SWIDTH 556 0
DWIDTH 9 0
BBX 8 12 1 0
BITMAP
30
10
08
00
66
E6
66
66
CC
CC
DD
6E
ENDCHAR
STARTCHAR uacute
ENCODING 250
SWIDTH 556 0
DWIDTH 9 0
BBX 8 12 1 0
BITMAP
0C
08
10
00
66
E6
66
66
CC
CC
DD
6E
ENDCHAR
STARTCHAR ucircumflex
ENCODING 251
SWIDTH 556 0
DWIDTH 9 0
BBX 8 12 1 0
BITMAP
08
1C
22
00
66
E6
66
66
CC
CC
DD
6E
ENDCHAR
STARTCHAR udieresis
ENCODING 252
SWIDTH 556 0
DWIDTH 9 0
BBX 8 11 1 0
BITMAP
66
66
00
66
E6
66
66
CC
CC
DD
6E
ENDCHAR
STARTCHAR yacute
ENCODING 253
SWIDTH 444 0
DWIDTH 7 0
BBX 8 15 -1 -3
BITMAP
06
04
08
00
13
39
19
1A
1A
1C
0C
08
10
A0
C0
ENDCHAR
STARTCHAR thorn
ENCODING 254
SWIDTH 500 0
DWIDTH 8 0
BBX 9 14 -1 -3
BITMAP
0C00
1C00
0C00
1B00
1D80
1980
1980
3100
3300
3600
3800
6000
6000
F000
ENDCHAR
STARTCHAR ydieresis
ENCODING 255
SWIDTH 444 0
DWIDTH 7 0
BBX 9 14 -1 -3
BITMAP
1980
1980
0000
1300
3900
1900
1A00
1A00
1C00
0C00
0800
1000
A000
C000
ENDCHAR
STARTCHAR Amacron
ENCODING 256
SWIDTH 667 0
DWIDTH 11 0
BBX 11 13 -1 0
BITMAP
0FC0
0000
0080
0180
0380
0780
0580
0980
1180
1F80
2180
41C0
E3E0
ENDCHAR
STARTCHAR amacron
ENCODING 257
SWIDTH 500 0
DWIDTH 8 0
BBX 8 10 0 0
BITMAP
7E
00
1B
66
66
C6
CC
CC
DD
76
ENDCHAR
STARTCHAR Abreve
ENCODING 258
SWIDTH 667 0
DWIDTH 11 0
BBX 11 14 -1 0
BITMAP
0440
0380
0000
0080
0180
0380
0780
0580
0980
1180
1F80
2180
41C0
E3E0
ENDCHAR
STARTCHAR abreve
ENCODING 259
SWIDTH 500 0
DWIDTH 8 0
BBX 8 11 0 0
BITMAP
22
1C
00
1B
66
66
C6
CC
CC
DD
76
ENDCHAR
STARTCHAR Aogonek
ENCODING 260
SWIDTH 667 0
DWIDTH 11 0
BBX 11 14 -1 -3
BITMAP
0080
0180
0380
0780
0580
0980
1180
1F80
2180
41C0
E3E0
0400
0480
0700
ENDCHAR
STARTCHAR aogonek
ENCODING 261
SWIDTH 500 0
DWIDTH 8 0
BBX 8 11 0 -3
BITMAP
1B
66
66
C6
CC
CC
DD
76
20
24
38
ENDCHAR
STARTCHAR Cacute
ENCODING 262
SWIDTH 667 0
DWIDTH 11 0
BBX 11 15 0 0
BITMAP
0300
0200
0400
0000
07A0
1840
3040
7000
6000
E000
E000
E000
6080
6100
1E00
ENDCHAR
STARTCHAR cacute
ENCODING 263
SWIDTH 444 0
DWIDTH 7 0
BBX 6 12 1 0
BITMAP
0C
08
10
00
1C
2C
40
C0
C0
C0
C8
70
ENDCHAR
STARTCHAR Ccircumflex
ENCODING 264
SWIDTH 667 0
DWIDTH 11 0
BBX 11 15 0 0
BITMAP
0200
0700
0880
0000
07A0
1840
3040
7000
6000
E000
E000
E000
6080
6100
1E00
ENDCHAR
STARTCHAR ccircumflex
ENCODING 265
SWIDTH 444 0
DWIDTH 7 0
BBX 6 12 1 0
BITMAP
10
38
44
00
1C
2C
40
C0
C0
C0
C8
70
ENDCHAR
STARTCHAR Cdotaccent
ENCODING 266
SWIDTH 667 0
DWIDTH 11 0
BBX 11 14 0 0
BITMAP
0600
0600
0000
07A0
1840
3040
7000
6000
E000
E000
E000
6080
6100
1E00
ENDCHAR
STARTCHAR cdotaccent
ENCODING 267
SWIDTH 444 0
DWIDTH 7 0
BBX 6 11 1 0
BITMAP
18
18
00
1C
2C
40
C0
C0
C0
C8
70
ENDCHAR
STARTCHAR Ccaron
ENCODING 268
SWIDTH 667 0
DWIDTH 11 0
BBX 11 15 0 0
BITMAP
0880
0700
0200
0000
07A0
1840
3040
7000
6000
E000
E000
E000
6080
6100
1E00
ENDCHAR
STARTCHAR ccaron
ENCODING 269
SWIDTH 444 0
DWIDTH 7 0
BBX 6 12 1 0
BITMAP
44
38
10
00
1C
2C
40
C0
C0
C0
C8
70
ENDCHAR
STARTCHAR Dcaron
ENCODING 270
SWIDTH 722 0
DWIDTH 12 0
BBX 11 15 0 0
BITMAP
1100
0E00
0400
0000
3F00
18C0
1860
3860
3060
3060
30C0
70C0
6080
6300
FC00
ENDCHAR
STARTCHAR dcaron
ENCODING 271
SWIDTH 808 0
DWIDTH 14 0
BBX 13 11 0 0
BITMAP
0318
0718
0308
0F10
3620
6600
4600
C600
CC00
DD00
6600
ENDCHAR
STARTCHAR Dcroat
ENCODING 272
SWIDTH 722 0
DWIDTH 12 0
BBX 11 11 0 0
BITMAP
3F00
18C0
1840
3860
3060
FC60
3060
60C0
60C0
6300
FC00
ENDCHAR
STARTCHAR dcroat
ENCODING 273
SWIDTH 500 0
DWIDTH 8 0
BBX 8 11 0 0
BITMAP
03
3F
03
0F
36
66
46
C6
CC
DD
66
ENDCHAR
STARTCHAR Emacron
ENCODING 274
SWIDTH 667 0
DWIDTH 11 0
BBX 10 13 0 0
BITMAP
1F80
0000
3FC0
1840
1840
3800
3100
3F00
3200
7000
6080
6180
FF00
ENDCHAR
STARTCHAR emacron
ENCODING 275
SWIDTH 444 0
DWIDTH 7 0
BBX 7 10 1 0
BITMAP
7E
00
1C
66
44
C8
F0
C4
C8
70
ENDCHAR
STARTCHAR Ebreve
ENCODING 276
SWIDTH 667 0
DWIDTH 11 0
BBX 10 14 0 0
BITMAP
1100
0E00
0000
3FC0
1840
1840
3800
3100
3F00
3200
7000
6080
6180
FF00
ENDCHAR
STARTCHAR ebreve
ENCODING 277
SWIDTH 444 0
DWIDTH 7 0
BBX 7 11 1 0
BITMAP
44
38
00
1C
66
44
C8
F0
C4
C8
70
ENDCHAR
STARTCHAR Edotaccent
ENCODING 278
SWIDTH 667 0
DWIDTH 11 0
BBX 10 14 0 0
BITMAP
0600
0600
0000
3FC0
1840
1840
3800
3100
3F00
3200
7000
6080
6180
FF00
ENDCHAR
STARTCHAR edotaccent
ENCODING 279
SWIDTH 444 0
DWIDTH 7 0
BBX 7 11 1 0
BITMAP
18
18
00
1C
66
44
C8
F0
C4
C8
70
ENDCHAR
STARTCHAR Eogonek
ENCODING 280
SWIDTH 667 0
DWIDTH 11 0
BBX 10 14 0 -3
BITMAP
3FC0
1840
1840
3800
3100
3F00
3200
7000
6080
6180
FF00
1000
1200
1C00
ENDCHAR
STARTCHAR eogonek
ENCODING 281
SWIDTH 444 0
DWIDTH 7 0
BBX 7 11 1 -3
BITMAP
1C
66
44
C8
F0
C4
C8
70
40
48
70
ENDCHAR
STARTCHAR Ecaron
ENCODING 282
SWIDTH 667 0
DWIDTH 11 0
BBX 10 15 0 0
BITMAP
1100
0E00
0400
0000
3FC0
1840
1840
3800
3100
3F00
3200
7000
6080
6180
FF00
ENDCHAR
STARTCHAR ecaron
ENCODING 283
SWIDTH 444 0
DWIDTH 7 0
BBX 7 12 1 0
BITMAP
44
38
10
00
1C
66
44
C8
F0
C4
C8
70
ENDCHAR
STARTCHAR Gcircumflex
ENCODING 284
SWIDTH 722 0
DWIDTH 12 0
BBX 12 15 0 0
BITMAP
0200
0700
0880
0000
07A0
1860
3020
7000
6000
E1F0
E0E0
E0C0
60C0
61C0
1E00
ENDCHAR
STARTCHAR gcircumflex
ENCODING 285
SWIDTH 500 0
DWIDTH 8 0
BBX 8 15 0 -3
BITMAP
08
1C
22
00
1D
26
66
64
38
40
FC
7E
82
84
78
ENDCHAR
STARTCHAR Gbreve
ENCODING 286
SWIDTH 722 0
DWIDTH 12 0
BBX 12 14 0 0
BITMAP
0880
0700
0000
07A0
1860
3020
7000
6000
E1F0
E0E0
E0C0
60C0
61C0
1E00
ENDCHAR
STARTCHAR gbreve
ENCODING 287
SWIDTH 500 0
DWIDTH 8 0
BBX 8 14 0 -3
BITMAP
22
1C
00
1D
26
66
64
38
40
FC
7E
82
84
78
ENDCHAR
STARTCHAR Gdotaccent
ENCODING 288
SWIDTH 722 0
DWIDTH 12 0
BBX 12 14 0 0
BITMAP
0300
0300
0000
07A0
1860
3020
7000
6000
E1F0
E0E0
E0C0
60C0
61C0
1E00
ENDCHAR
STARTCHAR gdotaccent
ENCODING 289
SWIDTH 500 0
DWIDTH 8 0
BBX 8 14 0 -3
BITMAP
18
18
00
1D
26
66
64
38
40
FC
7E
82
84
78
ENDCHAR
STARTCHAR Gcommaaccent
ENCODING 290
SWIDTH 722 0
DWIDTH 12 0
BBX 12 17 0 -6
BITMAP
07A0
1860
3020
7000
6000
E1F0
E0E0
E0C0
60C0
61C0
1E00
0000
0600
0600
0200
0400
0800
ENDCHAR
STARTCHAR gcommaaccent
ENCODING 291
SWIDTH 500 0
DWIDTH 8 0
BBX 8 17 0 -3
BITMAP
04
08
10
18
18
00
1D
26
66
64
38
40
FC
7E
82
84
78
ENDCHAR
STARTCHAR Hcircumflex
ENCODING 292
SWIDTH 778 0
DWIDTH 13 0
BBX 13 15 0 0
BITMAP
0100
0380
0440
0000
3EF8
1C70
1860
38E0
30E0
3FC0
30C0
71C0
6180
6180
F3C0
ENDCHAR
STARTCHAR hcircumflex
ENCODING 293
SWIDTH 556 0
DWIDTH 9 0
BBX 8 15 1 0
BITMAP
10
38
44
00
30
70
30
66
6E
76
66
CC
CC
CD
CE
ENDCHAR
STARTCHAR Hbar
ENCODING 294
SWIDTH 778 0
DWIDTH 13 0
BBX 13 11 0 0
BITMAP
3EF8
1C70
FFF8
38E0
30E0
3FC0
30C0
71C0
6180
6180
F3C0
ENDCHAR
STARTCHAR hbar
ENCODING 295
SWIDTH 556 0
DWIDTH 9 0
BBX 9 11 0 0
BITMAP
1800
FC00
1800
3300
3700
3B00
3300
6600
6600
6680
6700
ENDCHAR
STARTCHAR Itilde
ENCODING 296
SWIDTH 389 0
DWIDTH 6 0
BBX 7 14 0 0
BITMAP
3A
5C
00
3C
18
18
38
30
30
30
70
60
60
F0
ENDCHAR
STARTCHAR itilde
ENCODING 297
SWIDTH 278 0
DWIDTH 5 0
BBX 6 11 0 0
BITMAP
74
B8
00
30
70
30
30
60
60
68
70
ENDCHAR
STARTCHAR Imacron
ENCODING 298
SWIDTH 389 0
DWIDTH 6 0
BBX 7 13 0 0
BITMAP
7E
00
3C
18
18
38
30
30
30
70
60
60
F0
ENDCHAR
STARTCHAR imacron
ENCODING 299
SWIDTH 278 0
DWIDTH 5 0
BBX 6 10 0 0
BITMAP
FC
00
30
70
30
30
60
60
68
70
ENDCHAR
STARTCHAR Ibreve
ENCODING 300
SWIDTH 389 0
DWIDTH 6 0
BBX 6 14 0 0
BITMAP
44
38
00
3C
18
18
38
30
30
30
70
60
60
F0
ENDCHAR
STARTCHAR ibreve
ENCODING 301
SWIDTH 278 0
DWIDTH 5 0
BBX 5 11 0 0
BITMAP
88
70
00
30
70
30
30
60
60
68
70
ENDCHAR
STARTCHAR Iogonek
ENCODING 302
SWIDTH 389 0
DWIDTH 6 0
BBX 6 14 0 -3
BITMAP
3C
18
18
38
30
30
30
70
60
60
F0
40
48
70
ENDCHAR
STARTCHAR iogonek
ENCODING 303
SWIDTH 278 0
DWIDTH 5 0
BBX 4 14 1 -3
BITMAP
30
30
00
60
E0
60
60
C0
C0
D0
E0
80
90
E0
ENDCHAR
STARTCHAR Idotaccent
ENCODING 304
SWIDTH 389 0
DWIDTH 6 0
BBX 6 14 0 0
BITMAP
18
18
00
3C
18
18
38
30
30
30
70
60
60
F0
ENDCHAR
STARTCHAR dotlessi
ENCODING 305
SWIDTH 278 0
DWIDTH 5 0
BBX 4 8 1 0
BITMAP
60
E0
60
60
C0
C0
D0
E0
ENDCHAR
STARTCHAR IJ
ENCODING 306
SWIDTH 870 0
DWIDTH 14 0
BBX 14 13 0 -2
BITMAP
3C7C
1838
1830
3830
3070
3060
3060
7060
60E0
60C0
FCC0
0D80
0700
ENDCHAR
STARTCHAR ij
ENCODING 307
SWIDTH 542 0
DWIDTH 10 0
BBX 9 14 1 -3
BITMAP
3180
3180
0000
6100
E700
6300
6300
C300
C600
D600
E600
0600
3400
1800
ENDCHAR
STARTCHAR Jcircumflex
ENCODING 308
SWIDTH 500 0
DWIDTH 8 0
BBX 10 17 -2 -2
BITMAP
0200
0700
0880
0000
07C0
0380
0300
0300
0700
0600
0600
0600
0E00
0C00
CC00
D800
7000
ENDCHAR
STARTCHAR jcircumflex
ENCODING 309
SWIDTH 278 0
DWIDTH 5 0
BBX 7 15 -2 -3
BITMAP
08
1C
22
00
04
1C
0C
0C
0C
18
18
18
18
D0
60
ENDCHAR
STARTCHAR Kcommaaccent
ENCODING 310
SWIDTH 667 0
DWIDTH 11 0
BBX 10 17 0 -6
BITMAP
3DC0
1880
1900
3A00
3400
3E00
3600
7700
6300
6380
F3C0
0000
0C00
0C00
0400
0800
1000
ENDCHAR
STARTCHAR kcommaaccent
ENCODING 311
SWIDTH 500 0
DWIDTH 8 0
BBX 7 17 1 -6
BITMAP
30
70
30
66
64
68
70
D0
D8
DA
CC
00
30
30
10
20
40
ENDCHAR
STARTCHAR kgreenlandic
ENCODING 312
SWIDTH 500 0
DWIDTH 8 0
BBX 7 8 1 0
BITMAP
66
64
68
70
D0
D8
DA
CC
ENDCHAR
STARTCHAR Lacute
ENCODING 313
SWIDTH 611 0
DWIDTH 10 0
BBX 9 15 0 0
BITMAP
0600
0400
0800
0000
3E00
1800
1800
3800
3000
3000
3000
7000
6080
6180
FF00
ENDCHAR
STARTCHAR lacute
ENCODING 314
SWIDTH 278 0
DWIDTH 5 0
BBX 5 15 1 0
BITMAP
18
10
20
00
30
70
30
60
60
60
60
C0
C0
D0
60
ENDCHAR
STARTCHAR Lcommaaccent
ENCODING 315
SWIDTH 611 0
DWIDTH 10 0
BBX 9 17 0 -6
BITMAP
3E00
1800
1800
3800
3000
3000
3000
7000
6080
6180
FF00
0000
0C00
0C00
0400
0800
1000
ENDCHAR
STARTCHAR lcommaaccent
ENCODING 316
SWIDTH 278 0
DWIDTH 5 0
BBX 4 17 1 -6
BITMAP
30
70
30
60
60
60
60
C0
C0
D0
60
00
60
60
20
40
80
ENDCHAR
STARTCHAR Lcaron
ENCODING 317
SWIDTH 913 0
DWIDTH 16 0
BBX 15 11 0 0
BITMAP
3E06
1806
1802
3804
3008
3000
3000
7000
6080
6180
FF00
ENDCHAR
STARTCHAR lcaron
ENCODING 318
SWIDTH 597 0
DWIDTH 11 0
BBX 9 11 1 0
BITMAP
3180
7180
3080
6100
6200
6000
6000
C000
C000
D000
6000
ENDCHAR
STARTCHAR Ldot
ENCODING 319
SWIDTH 830 0
DWIDTH 14 0
BBX 13 11 0 0
BITMAP
3E00
1800
1800
3800
3000
3000
3018
7018
6080
6180
FF00
ENDCHAR
STARTCHAR ldot
ENCODING 320
SWIDTH 514 0
DWIDTH 9 0
BBX 7 11 1 0
BITMAP
30
70
30
60
60
60
66
C6
C0
D0
60
ENDCHAR
STARTCHAR Lslash
ENCODING 321
SWIDTH 611 0
DWIDTH 10 0
BBX 9 11 0 0
BITMAP
3E00
1800
1800
3A00
3C00
3000
F000
7000
6080
6180
FF00
ENDCHAR
STARTCHAR lslash
ENCODING 322
SWIDTH 278 0
DWIDTH 5 0
BBX 5 11 0 0
BITMAP
18
38
18
30
38
30
70
E0
60
68
30
ENDCHAR
STARTCHAR Nacute
ENCODING 323
SWIDTH 722 0
DWIDTH 12 0
BBX 12 15 0 0
BITMAP
0180
0100
0200
0000
3870
1820
1C20
3C20
2E40
2640
2740
43C0
4380
4180
E080
ENDCHAR
STARTCHAR nacute
ENCODING 324
SWIDTH 556 0
DWIDTH 9 0
BBX 8 12 1 0
BITMAP
0C
08
10
00
66
EE
76
66
CC
CC
CD
CE
ENDCHAR
STARTCHAR Ncommaaccent
ENCODING 325
SWIDTH 722 0
DWIDTH 12 0
BBX 12 17 0 -6
BITMAP
3870
1820
1C20
3C20
2E40
2640
2740
43C0
4380
4180
E080
0000
0C00
0C00
0400
0800
1000
ENDCHAR
STARTCHAR ncommaaccent
ENCODING 326
SWIDTH 556 0
DWIDTH 9 0
BBX 8 14 1 -6
BITMAP
66
EE
76
66
CC
CC
CD
CE
00
18
18
08
10
20
ENDCHAR
STARTCHAR Ncaron
ENCODING 327
SWIDTH 722 0
DWIDTH 12 0
BBX 12 15 0 0
BITMAP
0880
0700
0200
0000
3870
1820
1C20
3C20
2E40
2640
2740
43C0
4380
4180
E080
ENDCHAR
STARTCHAR ncaron
ENCODING 328
SWIDTH 556 0
DWIDTH 9 0
BBX 8 12 1 0
BITMAP
44
38
10
00
66
EE
76
66
CC
CC
CD
CE
ENDCHAR
STARTCHAR napostrophe
ENCODING 329
SWIDTH 872 0
DWIDTH 15 0
BBX 13 11 2 0
BITMAP
6000
6000
2000
4330
8770
03B0
0330
0660
0660
0668
0670
ENDCHAR
STARTCHAR Eng
ENCODING 330
SWIDTH 722 0
DWIDTH 12 0
BBX 12 14 0 -3
BITMAP
3870
1820
1C20
3C20
2E40
2640
2740
43C0
4380
4180
E180
0180
0D00
0600
ENDCHAR
STARTCHAR eng
ENCODING 331
SWIDTH 556 0
DWIDTH 9 0
BBX 7 11 1 -3
BITMAP
66
EE
76
66
CC
D8
D8
D8
18
D0
60
ENDCHAR
STARTCHAR Omacron
ENCODING 332
SWIDTH 722 0
DWIDTH 12 0
BBX 10 13 1 0
BITMAP
1F80
0000
0700
1880
30C0
70C0
60C0
E1C0
C180
C380
C300
4600
3800
ENDCHAR
STARTCHAR omacron
ENCODING 333
SWIDTH 500 0
DWIDTH 8 0
BBX 8 10 0 0
BITMAP
7E
00
0C
32
63
63
C6
C6
4C
30
ENDCHAR
STARTCHAR Obreve
ENCODING 334
SWIDTH 722 0
DWIDTH 12 0
BBX 10 14 1 0
BITMAP
1100
0E00
0000
0700
1880
30C0
70C0
60C0
E1C0
C180
C380
C300
4600
3800
ENDCHAR
STARTCHAR obreve
ENCODING 335
SWIDTH 500 0
DWIDTH 8 0
BBX 8 11 0 0
BITMAP
22
1C
00
0C
32
63
63
C6
C6
4C
30
ENDCHAR
STARTCHAR Ohungarumlaut
ENCODING 336
SWIDTH 722 0
DWIDTH 12 0
BBX 10 15 1 0
BITMAP
0D80
0900
1200
0000
0700
1880
30C0
70C0
60C0
E1C0
C180
C380
C300
4600
3800
ENDCHAR
STARTCHAR ohungarumlaut
ENCODING 337
SWIDTH 500 0
DWIDTH 8 0
BBX 8 12 0 0
BITMAP
1B
12
24
00
0C
32
63
63
C6
C6
4C
30
ENDCHAR
STARTCHAR OE
ENCODING 338
SWIDTH 944 0
DWIDTH 15 0
BBX 15 11 0 0
BITMAP
07FE
18C2
30C0
71C8
6188
E1F8
C390
C390
C304
470C
3FF8
ENDCHAR
STARTCHAR oe
ENCODING 339
SWIDTH 722 0
DWIDTH 12 0
BBX 12 8 0 0
BITMAP
0CE0
3330
6220
6640
C780
C620
4E40
3380
ENDCHAR
STARTCHAR Racute
ENCODING 340
SWIDTH 667 0
DWIDTH 11 0
BBX 10 15 0 0
BITMAP
0300
0200
0400
0000
3F00
18C0
18C0
38C0
3180
3E00
3600
7700
6300
6300
F1C0
ENDCHAR
STARTCHAR racute
ENCODING 341
SWIDTH 389 0
DWIDTH 6 0
BBX 6 12 1 0
BITMAP
18
10
20
00
6C
F4
60
60
C0
C0
C0
C0
ENDCHAR
STARTCHAR Rcommaaccent
ENCODING 342
SWIDTH 667 0
DWIDTH 11 0
BBX 10 17 0 -6
BITMAP
3F00
18C0
18C0
38C0
3180
3E00
3600
7700
6300
6300
F1C0
0000
0C00
0C00
0400
0800
1000
ENDCHAR
STARTCHAR rcommaaccent
ENCODING 343
SWIDTH 389 0
DWIDTH 6 0
BBX 6 14 1 -6
BITMAP
6C
F4
60
60
C0
C0
C0
C0
00
60
60
20
40
80
ENDCHAR
STARTCHAR Rcaron
ENCODING 344
SWIDTH 667 0
DWIDTH 11 0
BBX 10 15 0 0
BITMAP
1100
0E00
0400
0000
3F00
18C0
18C0
38C0
3180
3E00
3600
7700
6300
6300
F1C0
ENDCHAR
STARTCHAR rcaron
ENCODING 345
SWIDTH 389 0
DWIDTH 6 0
BBX 6 12 1 0
BITMAP
88
70
20
00
6C
F4
60
60
C0
C0
C0
C0
ENDCHAR
STARTCHAR Sacute
ENCODING 346
SWIDTH 556 0
DWIDTH 9 0
BBX 8 15 0 0
BITMAP
06
04
08
00
1D
23
61
70
78
3C
1E
0E
86
C4
B8
ENDCHAR
STARTCHAR sacute
ENCODING 347
SWIDTH 389 0
DWIDTH 6 0
BBX 6 12 0 0
BITMAP
0C
08
10
00
34
6C
64
70
38
98
D8
B0
ENDCHAR
STARTCHAR Scircumflex
ENCODING 348
SWIDTH 556 0
DWIDTH 9 0
BBX 8 15 0 0
BITMAP
08
1C
22
00
1D
23
61
70
78
3C
1E
0E
86
C4
B8
ENDCHAR
STARTCHAR scircumflex
ENCODING 349
SWIDTH 389 0
DWIDTH 6 0
BBX 6 12 0 0
BITMAP
10
38
44
00
34
6C
64
70
38
98
D8
B0
ENDCHAR
STARTCHAR Scedilla
ENCODING 350
SWIDTH 556 0
DWIDTH 9 0
BBX 8 14 0 -3
BITMAP
1D
23
61
70
78
3C
1E
0E
86
C4
B8
18
44
38
ENDCHAR
STARTCHAR scedilla
ENCODING 351
SWIDTH 389 0
DWIDTH 6 0
BBX 6 11 0 -3
BITMAP
34
6C
64
70
38
98
D8
B0
30
88
70
ENDCHAR
STARTCHAR Scaron
ENCODING 352
SWIDTH 556 0
DWIDTH 9 0
BBX 8 15 0 0
BITMAP
11
0E
04
00
1D
23
61
70
78
3C
1E
0E
86
C4
B8
ENDCHAR
STARTCHAR scaron
ENCODING 353
SWIDTH 389 0
DWIDTH 6 0
BBX 7 12 0 0
BITMAP
22
1C
08
00
34
6C
64
70
38
98
D8
B0
ENDCHAR
STARTCHAR Tcommaaccent
ENCODING 354
SWIDTH 611 0
DWIDTH 10 0
BBX 10 14 1 -3
BITMAP
FFC0
CCC0
8C80
1C00
1800
1800
1800
3800
3000
3000
F800
1800
4400
3800
ENDCHAR
STARTCHAR tcommaaccent
ENCODING 355
SWIDTH 278 0
DWIDTH 5 0
BBX 6 13 0 -3
BITMAP
08
18
7C
30
30
30
60
60
68
30
30
88
70
ENDCHAR
STARTCHAR Tcaron
ENCODING 356
SWIDTH 611 0
DWIDTH 10 0
BBX 10 15 1 0
BITMAP
2200
1C00
0800
0000
FFC0
CCC0
8C80
1C00
1800
1800
1800
3800
3000
3000
F800
ENDCHAR
STARTCHAR tcaron
ENCODING 357
SWIDTH 597 0
DWIDTH 11 0
BBX 9 11 1 0
BITMAP
0180
1180
3080
F900
6200
6000
6000
C000
C000
D000
6000
ENDCHAR
STARTCHAR Tbar
ENCODING 358
SWIDTH 611 0
DWIDTH 10 0
BBX 10 11 1 0
BITMAP
FFC0
CCC0
8C80
1C00
1800
3F00
1800
3800
3000
3000
F800
ENDCHAR
STARTCHAR tbar
ENCODING 359
SWIDTH 278 0
DWIDTH 5 0
BBX 6 10 1 0
BITMAP
10
30
F8
60
60
FC
C0
C0
D0
60
ENDCHAR
STARTCHAR Utilde
ENCODING 360
SWIDTH 722 0
DWIDTH 12 0
BBX 12 14 1 0
BITMAP
0E80
1700
0000
7CF0
3860
3040
7040
7080
6080
E080
C100
C100
C200
7C00
ENDCHAR
STARTCHAR utilde
ENCODING 361
SWIDTH 556 0
DWIDTH 9 0
BBX 8 11 1 0
BITMAP
3A
5C
00
66
E6
66
66
CC
CC
DD
6E
ENDCHAR
STARTCHAR Umacron
ENCODING 362
SWIDTH 722 0
DWIDTH 12 0
BBX 12 13 1 0
BITMAP
1F80
0000
7CF0
3860
3040
7040
7080
6080
E080
C100
C100
C200
7C00
ENDCHAR
STARTCHAR umacron
ENCODING 363
SWIDTH 556 0
DWIDTH 9 0
BBX 8 10 1 0
BITMAP
7E
00
66
E6
66
66
CC
CC
DD
6E
ENDCHAR
STARTCHAR Ubreve
ENCODING 364
SWIDTH 722 0
DWIDTH 12 0
BBX 12 14 1 0
BITMAP
0880
0700
0000
7CF0
3860
3040
7040
7080
6080
E080
C100
C100
C200
7C00
ENDCHAR
STARTCHAR ubreve
ENCODING 365
SWIDTH 556 0
DWIDTH 9 0
BBX 8 11 1 0
BITMAP
44
38
00
66
E6
66
66
CC
CC
DD
6E
ENDCHAR
STARTCHAR Uring
ENCODING 366
SWIDTH 722 0
DWIDTH 12 0
BBX 12 15 1 0
BITMAP
0600
0900
0600
0000
7CF0
3860
3040
7040
7080
6080
E080
C100
C100
C200
7C00
ENDCHAR
STARTCHAR uring
ENCODING 367
SWIDTH 556 0
DWIDTH 9 0
BBX 8 12 1 0
BITMAP
18
24
18
00
66
E6
66
66
CC
CC
DD
6E
ENDCHAR
STARTCHAR Uhungarumlaut
ENCODING 368
SWIDTH 722 0
DWIDTH 12 0
BBX 12 15 1 0
BITMAP
06C0
0480
0900
0000
7CF0
3860
3040
7040
7080
6080
E080
C100
C100
C200
7C00
ENDCHAR
STARTCHAR uhungarumlaut
ENCODING 369
SWIDTH 556 0
DWIDTH 9 0
BBX 8 12 1 0
BITMAP
36
24
48
00
66
E6
66
66
CC
CC
DD
6E
ENDCHAR
STARTCHAR Uogonek
ENCODING 370
SWIDTH 722 0
DWIDTH 12 0
BBX 12 14 1 -3
BITMAP
7CF0
3860
3040
7040
7080
6080
E080
C100
C100
C200
7C00
1000
1200
1C00
ENDCHAR
STARTCHAR uogonek
ENCODING 371
SWIDTH 556 0
DWIDTH 9 0
BBX 8 11 1 -3
BITMAP
66
E6
66
66
CC
CC
DD
7E
20
24
38
ENDCHAR
STARTCHAR Wcircumflex
ENCODING 372
SWIDTH 889 0
DWIDTH 15 0
BBX 15 15 0 0
BITMAP
0100
0380
0440
0000
FBEE
6184
6184
6188
73C8
32D0
34D0
34E0
38E0
1840
1040
ENDCHAR
STARTCHAR wcircumflex
ENCODING 373
SWIDTH 667 0
DWIDTH 11 0
BBX 10 12 1 0
BITMAP
0800
1C00
2200
0000
64C0
E4C0
6440
6E80
7680
6700
4600
4400
ENDCHAR
STARTCHAR Ycircumflex
ENCODING 374
SWIDTH 611 0
DWIDTH 10 0
BBX 9 15 1 0
BITMAP
0800
1C00
2200
0000
F380
6100
7200
3400
3800
1800
1800
3000
3000
3000
F800
ENDCHAR
STARTCHAR ycircumflex
ENCODING 375
SWIDTH 444 0
DWIDTH 7 0
BBX 8 15 -1 -3
BITMAP
08
1C
22
00
13
39
19
1A
1A
1C
0C
08
10
A0
C0
ENDCHAR
STARTCHAR Ydieresis
ENCODING 376
SWIDTH 611 0
DWIDTH 10 0
BBX 9 14 1 0
BITMAP
3300
3300
0000
F380
6100
7200
3400
3800
1800
1800
3000
3000
3000
F800
ENDCHAR
STARTCHAR Zacute
ENCODING 377
SWIDTH 611 0
DWIDTH 10 0
BBX 10 15 0 0
BITMAP
0300
0200
0400
0000
3FC0
6380
4300
0600
0E00
0C00
1800
3800
3080
7180
FF00
ENDCHAR
STARTCHAR zacute
ENCODING 378
SWIDTH 389 0
DWIDTH 6 0
BBX 7 13 0 -1
BITMAP
0C
08
10
00
3E
7C
48
10
20
60
F0
34
18
ENDCHAR
STARTCHAR Zdotaccent
ENCODING 379
SWIDTH 611 0
DWIDTH 10 0
BBX 10 14 0 0
BITMAP
0C00
0C00
0000
3FC0
6380
4300
0600
0E00
0C00
1800
3800
3080
7180
FF00
ENDCHAR
STARTCHAR zdotaccent
ENCODING 380
SWIDTH 389 0
DWIDTH 6 0
BBX 7 12 0 -1
BITMAP
18
18
00
3E
7C
48
10
20
60
F0
34
18
ENDCHAR
STARTCHAR Zcaron
ENCODING 381
SWIDTH 611 0
DWIDTH 10 0
BBX 10 15 0 0
BITMAP
0880
0700
0200
0000
3FC0
6380
4300
0600
0E00
0C00
1800
3800
3080
7180
FF00
ENDCHAR
STARTCHAR zcaron
ENCODING 382
SWIDTH 389 0
DWIDTH 6 0
BBX 7 13 0 -1
BITMAP
22
1C
08
00
3E
7C
48
10
20
60
F0
34
18
ENDCHAR
STARTCHAR uni0186
ENCODING 390
SWIDTH 667 0
DWIDTH 11 0
BBX 11 11 0 0
BITMAP
0F00
10C0
20C0
00E0
00E0
00E0
00C0
01C0
4180
4300
BC00
ENDCHAR
STARTCHAR uni0189
ENCODING 393
SWIDTH 722 0
DWIDTH 12 0
BBX 11 11 0 0
BITMAP
3F00
18C0
1840
3860
3060
FC60
3060
60C0
60C0
6300
FC00
ENDCHAR
STARTCHAR uni018E
ENCODING 398
SWIDTH 667 0
DWIDTH 11 0
BBX 10 11 0 0
BITMAP
3FC0
6180
4180
0380
1300
3F00
2300
0700
8600
8600
FF00
ENDCHAR
STARTCHAR florin
ENCODING 402
SWIDTH 500 0
DWIDTH 8 0
BBX 11 14 -2 -3
BITMAP
01C0
0360
0300
0300
0F80
0600
0600
0600
0C00
0C00
0C00
1800
D800
7000
ENDCHAR
STARTCHAR uni0197
ENCODING 407
SWIDTH 389 0
DWIDTH 6 0
BBX 6 11 0 0
BITMAP
3C
18
18
38
30
FC
30
70
60
60
F0
ENDCHAR
STARTCHAR uni019A
ENCODING 410
SWIDTH 278 0
DWIDTH 5 0
BBX 6 11 0 0
BITMAP
18
38
18
30
30
FC
30
60
60
68
30
ENDCHAR
STARTCHAR uni019D
ENCODING 413
SWIDTH 722 0
DWIDTH 12 0
BBX 15 14 -3 -3
BITMAP
070E
0304
0384
0784
05C8
04C8
04E8
0C78
1830
1830
1810
1800
D000
6000
ENDCHAR
STARTCHAR uni019F
ENCODING 415
SWIDTH 722 0
DWIDTH 12 0
BBX 10 11 1 0
BITMAP
0700
1880
30C0
70C0
60C0
FFC0
C180
C380
C300
4600
3800
ENDCHAR
STARTCHAR Ohorn
ENCODING 416
SWIDTH 722 0
DWIDTH 12 0
BBX 12 11 1 0
BITMAP
0730
18B0
30D0
70E0
60C0
E1C0
C180
C380
C300
4600
3800
ENDCHAR
STARTCHAR ohorn
ENCODING 417
SWIDTH 500 0
DWIDTH 8 0
BBX 11 8 0 0
BITMAP
0C60
3260
6320
6340
C680
C600
4C00
3000
ENDCHAR
STARTCHAR Uhorn
ENCODING 431
SWIDTH 722 0
DWIDTH 12 0
BBX 14 11 1 0
BITMAP
7CFC
386C
3044
7048
7090
6080
E080
C100
C100
C200
7C00
ENDCHAR
STARTCHAR uhorn
ENCODING 432
SWIDTH 556 0
DWIDTH 9 0
BBX 11 8 1 0
BITMAP
6660
E660
6620
6640
CC80
CC00
DD00
6E00
ENDCHAR
STARTCHAR uni01B5
ENCODING 437
SWIDTH 611 0
DWIDTH 10 0
BBX 10 11 0 0
BITMAP
3FC0
6380
4300
0600
0E00
3F00
1800
3800
3080
7180
FF00
ENDCHAR
STARTCHAR uni01B6
ENCODING 438
SWIDTH 389 0
DWIDTH 6 0
BBX 7 9 0 -1
BITMAP
3E
7C
48
10
7E
60
F0
34
18
ENDCHAR
STARTCHAR uni01BB
ENCODING 443
SWIDTH 500 0
DWIDTH 8 0
BBX 8 11 -1 0
BITMAP
1E
27
23
03
02
FF
08
10
21
7E
FC
ENDCHAR
STARTCHAR uni01BC
ENCODING 444
SWIDTH 500 0
DWIDTH 8 0
BBX 8 11 0 0
BITMAP
1F
1E
30
60
7C
0E
06
06
06
CC
70
ENDCHAR
STARTCHAR uni01C0
ENCODING 448
SWIDTH 220 0
DWIDTH 4 0
BBX 1 12 1 0
BITMAP
80
80
80
80
80
80
80
80
80
80
80
80
ENDCHAR
STARTCHAR uni01C2
ENCODING 450
SWIDTH 570 0
DWIDTH 10 0
BBX 7 12 1 -1
BITMAP
10
10
10
10
FE
FE
10
FE
FE
10
10
10
ENDCHAR
STARTCHAR uni01C3
ENCODING 451
SWIDTH 389 0
DWIDTH 6 0
BBX 5 11 1 0
BITMAP
18
18
30
30
20
60
40
40
00
C0
C0
ENDCHAR
STARTCHAR uni01CD
ENCODING 461
SWIDTH 667 0
DWIDTH 11 0
BBX 11 15 -1 0
BITMAP
0440
0380
0100
0000
0080
0180
0380
0780
0580
0980
1180
1F80
2180
41C0
E3E0
ENDCHAR
STARTCHAR uni01CE
ENCODING 462
SWIDTH 500 0
DWIDTH 8 0
BBX 8 12 0 0
BITMAP
22
1C
08
00
1B
66
66
C6
CC
CC
DD
76
ENDCHAR
STARTCHAR uni01CF
ENCODING 463
SWIDTH 389 0
DWIDTH 6 0
BBX 6 15 0 0
BITMAP
44
38
10
00
3C
18
18
38
30
30
30
70
60
60
F0
ENDCHAR
STARTCHAR uni01D0
ENCODING 464
SWIDTH 278 0
DWIDTH 5 0
BBX 5 12 0 0
BITMAP
88
70
20
00
30
70
30
30
60
60
68
70
ENDCHAR
STARTCHAR uni01D1
ENCODING 465
SWIDTH 722 0
DWIDTH 12 0
BBX 10 15 1 0
BITMAP
1100
0E00
0400
0000
0700
1880
30C0
70C0
60C0
E1C0
C180
C380
C300
4600
3800
ENDCHAR
STARTCHAR uni01D2
ENCODING 466
SWIDTH 500 0
DWIDTH 8 0
BBX 8 12 0 0
BITMAP
22
1C
08
00
0C
32
63
63
C6
C6
4C
30
ENDCHAR
STARTCHAR uni01D3
ENCODING 467
SWIDTH 722 0
DWIDTH 12 0
BBX 12 15 1 0
BITMAP
0880
0700
0200
0000
7CF0
3860
3040
7040
7080
6080
E080
C100
C100
C200
7C00
ENDCHAR
STARTCHAR uni01D4
ENCODING 468
SWIDTH 556 0
DWIDTH 9 0
BBX 8 12 1 0
BITMAP
44
38
10
00
66
E6
66
66
CC
CC
DD
6E
ENDCHAR
STARTCHAR uni01D5
ENCODING 469
SWIDTH 722 0
DWIDTH 12 0
BBX 11 16 1 0
BITMAP
1F80
0000
0CC0
0CC0
0000
7CE0
3840
3040
7040
7080
6080
E080
C100
C100
C200
7C00
ENDCHAR
STARTCHAR uni01D6
ENCODING 470
SWIDTH 556 0
DWIDTH 9 0
BBX 8 13 1 0
BITMAP
7E
00
66
66
00
66
E6
66
66
CC
CC
DD
6E
ENDCHAR
STARTCHAR uni01D7
ENCODING 471
SWIDTH 722 0
DWIDTH 12 0
BBX 11 18 1 0
BITMAP
0300
0200
0400
0000
0CC0
0CC0
0000
7CE0
3840
3040
7040
7080
6080
E080
C100
C100
C200
7C00
ENDCHAR
STARTCHAR uni01D8
ENCODING 472
SWIDTH 556 0
DWIDTH 9 0
BBX 8 15 1 0
BITMAP
0C
08
10
00
66
66
00
66
E6
66
66
CC
CC
DD
6E
ENDCHAR
STARTCHAR uni01D9
ENCODING 473
SWIDTH 722 0
DWIDTH 12 0
BBX 11 18 1 0
BITMAP
0880
0700
0200
0000
0CC0
0CC0
0000
7CE0
3840
3040
7040
7080
6080
E080
C100
C100
C200
7C00
ENDCHAR
STARTCHAR uni01DA
ENCODING 474
SWIDTH 556 0
DWIDTH 9 0
BBX 8 15 1 0
BITMAP
22
1C
08
00
66
66
00
66
E6
66
66
CC
CC
DD
6E
ENDCHAR
STARTCHAR uni01DB
ENCODING 475
SWIDTH 722 0
DWIDTH 12 0
BBX 11 18 1 0
BITMAP
0C00
0400
0200
0000
0CC0
0CC0
0000
7CE0
3840
3040
7040
7080
6080
E080
C100
C100
C200
7C00
ENDCHAR
STARTCHAR uni01DC
ENCODING 476
SWIDTH 556 0
DWIDTH 9 0
BBX 8 15 1 0
BITMAP
30
10
08
00
66
66
00
66
E6
66
66
CC
CC
DD
6E
ENDCHAR
STARTCHAR uni01DD
ENCODING 477
SWIDTH 444 0
DWIDTH 7 0
BBX 7 8 1 0
BITMAP
1C
26
46
1E
26
44
CC
70
ENDCHAR
STARTCHAR uni01DE
ENCODING 478
SWIDTH 667 0
DWIDTH 11 0
BBX 11 16 -1 0
BITMAP
0FC0
0000
0660
0660
0000
0100
0100
0300
0780
0580
0980
1180
1F80
2180
41C0
E3E0
ENDCHAR
STARTCHAR uni01DF
ENCODING 479
SWIDTH 500 0
DWIDTH 8 0
BBX 8 13 0 0
BITMAP
3F
00
33
33
00
1B
66
66
C6
CC
CC
DD
76
ENDCHAR
STARTCHAR uni01E0
ENCODING 480
SWIDTH 667 0
DWIDTH 11 0
BBX 11 16 -1 0
BITMAP
0FC0
0000
0300
0300
0000
0080
0180
0380
0780
0580
0980
1180
1F80
2180
41C0
E3E0
ENDCHAR
STARTCHAR uni01E1
ENCODING 481
SWIDTH 500 0
DWIDTH 8 0
BBX 8 13 0 0
BITMAP
7E
00
18
18
00
1B
66
66
C6
CC
CC
DD
76
ENDCHAR
STARTCHAR uni01E2
ENCODING 482
SWIDTH 944 0
DWIDTH 15 0
BBX 16 13 -1 0
BITMAP
01F8
0000
01FF
00E1
0160
02E4
04C4
08FC
1FC8
11C8
2182
4186
E3FC
ENDCHAR
STARTCHAR uni01E3
ENCODING 483
SWIDTH 722 0
DWIDTH 12 0
BBX 12 10 0 0
BITMAP
1F80
0000
1AE0
6730
6620
C640
CF80
CE20
DE40
7380
ENDCHAR
STARTCHAR uni01E4
ENCODING 484
SWIDTH 722 0
DWIDTH 12 0
BBX 13 11 0 0
BITMAP
07A0
1860
3020
7000
6000
E1F0
E0E0
E1F8
60C0
61C0
1E00
ENDCHAR
STARTCHAR uni01E5
ENCODING 485
SWIDTH 500 0
DWIDTH 8 0
BBX 8 11 0 -3
BITMAP
1D
26
66
64
38
40
FC
7E
FF
84
78
ENDCHAR
STARTCHAR Gcaron
ENCODING 486
SWIDTH 722 0
DWIDTH 12 0
BBX 12 15 0 0
BITMAP
0880
0700
0200
0000
07A0
1860
3020
7000
6000
E1F0
E0E0
E0C0
60C0
61C0
1E00
ENDCHAR
STARTCHAR gcaron
ENCODING 487
SWIDTH 500 0
DWIDTH 8 0
BBX 8 15 0 -3
BITMAP
22
1C
08
00
1D
26
66
64
38
40
FC
7E
82
84
78
ENDCHAR
STARTCHAR uni01E8
ENCODING 488
SWIDTH 667 0
DWIDTH 11 0
BBX 10 15 0 0
BITMAP
1100
0E00
0400
0000
3DC0
1880
1900
3A00
3400
3E00
3600
7700
6300
6380
F3C0
ENDCHAR
STARTCHAR uni01E9
ENCODING 489
SWIDTH 500 0
DWIDTH 8 0
BBX 7 15 1 0
BITMAP
44
38
10
00
30
70
30
66
64
68
70
D0
D8
DA
CC
ENDCHAR
STARTCHAR uni01EA
ENCODING 490
SWIDTH 722 0
DWIDTH 12 0
BBX 10 14 1 -3
BITMAP
0700
1880
30C0
70C0
60C0
E1C0
C180
C380
C300
4600
3800
1000
1200
1C00
ENDCHAR
STARTCHAR uni01EB
ENCODING 491
SWIDTH 500 0
DWIDTH 8 0
BBX 8 11 0 -3
BITMAP
0C
32
63
63
C6
C6
4C
30
20
24
38
ENDCHAR
STARTCHAR uni01EC
ENCODING 492
SWIDTH 722 0
DWIDTH 12 0
BBX 10 16 1 -3
BITMAP
3F00
0000
0700
1880
30C0
70C0
60C0
E1C0
C180
C380
C300
4600
3800
1000
1200
1C00
ENDCHAR
STARTCHAR uni01ED
ENCODING 493
SWIDTH 500 0
DWIDTH 8 0
BBX 8 13 0 -3
BITMAP
7E
00
0C
32
63
63
C6
C6
4C
30
20
24
38
ENDCHAR
STARTCHAR uni01F0
ENCODING 496
SWIDTH 278 0
DWIDTH 5 0
BBX 7 15 -2 -3
BITMAP
22
1C
08
00
04
1C
0C
0C
0C
18
18
18
18
D0
60
ENDCHAR
STARTCHAR uni01F4
ENCODING 500
SWIDTH 722 0
DWIDTH 12 0
BBX 12 15 0 0
BITMAP
0180
0100
0200
0000
07A0
1860
3020
7000
6000
E1F0
E0E0
E0C0
60C0
61C0
1E00
ENDCHAR
STARTCHAR uni01F5
ENCODING 501
SWIDTH 500 0
DWIDTH 8 0
BBX 8 15 0 -3
BITMAP
06
04
08
00
1D
26
66
64
38
40
FC
7E
82
84
78
ENDCHAR
STARTCHAR uni01F8
ENCODING 504
SWIDTH 722 0
DWIDTH 12 0
BBX 12 15 0 0
BITMAP
0C00
0400
0200
0000
3870
1820
1C20
3C20
2E40
2640
2740
43C0
4380
4180
E080
ENDCHAR
STARTCHAR uni01F9
ENCODING 505
SWIDTH 556 0
DWIDTH 9 0
BBX 8 12 1 0
BITMAP
30
10
08
00
66
EE
76
66
CC
CC
CD
CE
ENDCHAR
STARTCHAR Aringacute
ENCODING 506
SWIDTH 667 0
DWIDTH 11 0
BBX 11 19 -1 0
BITMAP
0180
0100
0200
0000
0180
0240
0180
0000
0100
0100
0300
0780
0580
0980
1180
1F80
2180
41C0
E3E0
ENDCHAR
STARTCHAR aringacute
ENCODING 507
SWIDTH 500 0
DWIDTH 8 0
BBX 8 16 0 0
BITMAP
06
04
08
00
0C
12
0C
00
1B
66
66
C6
CC
CC
DD
76
ENDCHAR
STARTCHAR AEacute
ENCODING 508
SWIDTH 944 0
DWIDTH 15 0
BBX 16 15 -1 0
BITMAP
0030
0020
0040
0000
01FF
00E1
0160
02E4
04C4
08FC
1FC8
11C8
2182
4186
E3FC
ENDCHAR
STARTCHAR aeacute
ENCODING 509
SWIDTH 722 0
DWIDTH 12 0
BBX 12 12 0 0
BITMAP
0300
0200
0400
0000
1AE0
6730
6620
C640
CF80
CE20
DE40
7380
ENDCHAR
STARTCHAR Oslashacute
ENCODING 510
SWIDTH 722 0
DWIDTH 12 0
BBX 10 18 1 -2
BITMAP
0300
0200
0400
0000
0080
0700
1980
32C0
62C0
64C0
C4C0
C980
C980
D300
5600
3800
2000
4000
ENDCHAR
STARTCHAR oslashacute
ENCODING 511
SWIDTH 500 0
DWIDTH 8 0
BBX 8 16 0 -2
BITMAP
06
04
08
00
01
02
0E
36
6B
6B
D6
D6
6C
70
40
80
ENDCHAR
STARTCHAR Scommaaccent
ENCODING 536
SWIDTH 556 0
DWIDTH 9 0
BBX 8 17 0 -6
BITMAP
1D
23
61
70
78
3C
1E
0E
86
C4
B8
00
18
18
08
10
20
ENDCHAR
STARTCHAR scommaaccent
ENCODING 537
SWIDTH 389 0
DWIDTH 6 0
BBX 6 14 0 -6
BITMAP
34
6C
64
70
38
98
D8
B0
00
30
30
10
20
40
ENDCHAR
STARTCHAR Tcommaaccent
ENCODING 538
SWIDTH 611 0
DWIDTH 10 0
BBX 10 17 1 -6
BITMAP
FFC0
CCC0
8C80
1C00
1800
1800
1800
3800
3000
3000
F800
0000
1800
1800
0800
1000
2000
ENDCHAR
STARTCHAR tcommaaccent
ENCODING 539
SWIDTH 278 0
DWIDTH 5 0
BBX 5 16 1 -6
BITMAP
10
30
F8
60
60
60
C0
C0
D0
60
00
60
60
20
40
80
ENDCHAR
STARTCHAR uni021E
ENCODING 542
SWIDTH 778 0
DWIDTH 13 0
BBX 13 15 0 0
BITMAP
0440
0380
0100
0000
3EF8
1C70
1860
38E0
30E0
3FC0
30C0
71C0
6180
6180
F3C0
ENDCHAR
STARTCHAR uni021F
ENCODING 543
SWIDTH 556 0
DWIDTH 9 0
BBX 8 15 1 0
BITMAP
44
38
10
00
30
70
30
66
6E
76
66
CC
CC
CD
CE
ENDCHAR
STARTCHAR uni0226
ENCODING 550
SWIDTH 667 0
DWIDTH 11 0
BBX 11 14 -1 0
BITMAP
0300
0300
0000
0080
0180
0380
0780
0580
0980
1180
1F80
2180
41C0
E3E0
ENDCHAR
STARTCHAR uni0227
ENCODING 551
SWIDTH 500 0
DWIDTH 8 0
BBX 8 11 0 0
BITMAP
18
18
00
1B
66
66
C6
CC
CC
DD
76
ENDCHAR
STARTCHAR uni0228
ENCODING 552
SWIDTH 667 0
DWIDTH 11 0
BBX 10 14 0 -3
BITMAP
3FC0
1840
1840
3800
3100
3F00
3200
7000
6080
6180
FF00
0C00
2200
1C00
ENDCHAR
STARTCHAR uni0229
ENCODING 553
SWIDTH 444 0
DWIDTH 7 0
BBX 7 11 1 -3
BITMAP
1C
66
44
C8
F0
C4
C8
70
30
88
70
ENDCHAR
STARTCHAR uni022A
ENCODING 554
SWIDTH 722 0
DWIDTH 12 0
BBX 10 16 1 0
BITMAP
1F80
0000
0CC0
0CC0
0000
0700
1880
30C0
70C0
60C0
E1C0
C180
C380
C300
4600
3800
ENDCHAR
STARTCHAR uni022B
ENCODING 555
SWIDTH 500 0
DWIDTH 8 0
BBX 9 13 0 0
BITMAP
1F80
0000
1980
1980
0000
0C00
3200
6300
6300
C600
C600
4C00
3000
ENDCHAR
STARTCHAR uni022C
ENCODING 556
SWIDTH 722 0
DWIDTH 12 0
BBX 10 16 1 0
BITMAP
1F80
0000
0E40
1380
0000
0700
1880
30C0
70C0
60C0
E1C0
C180
C380
C300
4600
3800
ENDCHAR
STARTCHAR uni022D
ENCODING 557
SWIDTH 500 0
DWIDTH 8 0
BBX 8 13 0 0
BITMAP
3F
00
1D
2E
00
0C
32
63
63
C6
C6
4C
30
ENDCHAR
STARTCHAR uni022E
ENCODING 558
SWIDTH 722 0
DWIDTH 12 0
BBX 10 14 1 0
BITMAP
0600
0600
0000
0700
1880
30C0
70C0
60C0
E1C0
C180
C380
C300
4600
3800
ENDCHAR
STARTCHAR uni022F
ENCODING 559
SWIDTH 500 0
DWIDTH 8 0
BBX 8 11 0 0
BITMAP
18
18
00
0C
32
63
63
C6
C6
4C
30
ENDCHAR
STARTCHAR uni0230
ENCODING 560
SWIDTH 722 0
DWIDTH 12 0
BBX 10 16 1 0
BITMAP
1F80
0000
0600
0600
0000
0700
1880
30C0
70C0
60C0
E1C0
C180
C380
C300
4600
3800
ENDCHAR
STARTCHAR uni0231
ENCODING 561
SWIDTH 500 0
DWIDTH 8 0
BBX 8 13 0 0
BITMAP
7E
00
18
18
00
0C
32
63
63
C6
C6
4C
30
ENDCHAR
STARTCHAR uni0232
ENCODING 562
SWIDTH 611 0
DWIDTH 10 0
BBX 9 13 1 0
BITMAP
7E00
0000
F380
6100
7200
3400
3800
1800
1800
3000
3000
3000
F800
ENDCHAR
STARTCHAR uni0233
ENCODING 563
SWIDTH 444 0
DWIDTH 7 0
BBX 8 13 -1 -3
BITMAP
3F
00
13
39
19
1A
1A
1C
0C
08
10
A0
C0
ENDCHAR
STARTCHAR uni0250
ENCODING 592
SWIDTH 500 0
DWIDTH 8 0
BBX 8 8 0 0
BITMAP
6E
BB
33
33
63
66
66
D8
ENDCHAR
STARTCHAR uni0259
ENCODING 601
SWIDTH 444 0
DWIDTH 7 0
BBX 7 8 1 0
BITMAP
1C
26
46
1E
26
44
CC
70
ENDCHAR
STARTCHAR uni025F
ENCODING 607
SWIDTH 333 0
DWIDTH 6 0
BBX 11 14 -3 -6
BITMAP
01C0
0360
0300
0600
0600
0600
0C00
0C00
0C00
3E00
1800
1800
D800
7000
ENDCHAR
STARTCHAR uni0265
ENCODING 613
SWIDTH 556 0
DWIDTH 9 0
BBX 8 11 1 -3
BITMAP
73
B3
33
33
66
6E
76
66
0C
0E
0C
ENDCHAR
STARTCHAR uni0275
ENCODING 629
SWIDTH 500 0
DWIDTH 8 0
BBX 8 8 0 0
BITMAP
0C
32
63
FF
C6
C6
4C
30
ENDCHAR
STARTCHAR uni0279
ENCODING 633
SWIDTH 389 0
DWIDTH 6 0
BBX 6 8 1 0
BITMAP
0C
0C
0C
0C
18
18
BC
D8
ENDCHAR
STARTCHAR uni0287
ENCODING 647
SWIDTH 278 0
DWIDTH 5 0
BBX 5 10 1 0
BITMAP
30
58
18
18
30
30
30
F8
60
40
ENDCHAR
STARTCHAR uni0289
ENCODING 649
SWIDTH 556 0
DWIDTH 9 0
BBX 8 8 1 0
BITMAP
66
E6
66
FF
CC
CC
DD
6E
ENDCHAR
STARTCHAR uni028C
ENCODING 652
SWIDTH 444 0
DWIDTH 7 0
BBX 6 8 1 0
BITMAP
08
18
38
58
58
98
DC
C8
ENDCHAR
STARTCHAR uni028D
ENCODING 653
SWIDTH 667 0
DWIDTH 11 0
BBX 10 8 1 0
BITMAP
0880
1880
3980
5B80
5D80
8980
C9C0
C980
ENDCHAR
STARTCHAR uni028E
ENCODING 654
SWIDTH 444 0
DWIDTH 7 0
BBX 8 11 -1 0
BITMAP
03
05
08
10
30
38
58
58
98
9C
C8
ENDCHAR
STARTCHAR uni029E
ENCODING 670
SWIDTH 500 0
DWIDTH 8 0
BBX 7 11 1 -3
BITMAP
66
B6
36
16
1C
2C
4C
CC
18
1C
18
ENDCHAR
STARTCHAR uni02BB
ENCODING 699
SWIDTH 333 0
DWIDTH 6 0
BBX 3 5 2 6
BITMAP
20
40
80
C0
C0
ENDCHAR
STARTCHAR afii57929
ENCODING 700
SWIDTH 333 0
DWIDTH 6 0
BBX 3 5 2 6
BITMAP
60
60
20
40
80
ENDCHAR
STARTCHAR afii64937
ENCODING 701
SWIDTH 333 0
DWIDTH 6 0
BBX 3 5 2 6
BITMAP
C0
C0
80
40
20
ENDCHAR
STARTCHAR circumflex
ENCODING 710
SWIDTH 333 0
DWIDTH 6 0
BBX 5 3 1 9
BITMAP
20
70
88
ENDCHAR
STARTCHAR caron
ENCODING 711
SWIDTH 333 0
DWIDTH 6 0
BBX 5 3 1 9
BITMAP
88
70
20
ENDCHAR
STARTCHAR uni02C8
ENCODING 712
SWIDTH 278 0
DWIDTH 5 0
BBX 2 5 2 6
BITMAP
C0
C0
C0
80
80
ENDCHAR
STARTCHAR macron
ENCODING 713
SWIDTH 333 0
DWIDTH 6 0
BBX 6 1 0 9
BITMAP
FC
ENDCHAR
STARTCHAR uni02CA
ENCODING 714
SWIDTH 333 0
DWIDTH 6 0
BBX 3 3 3 9
BITMAP
60
40
80
ENDCHAR
STARTCHAR uni02CB
ENCODING 715
SWIDTH 333 0
DWIDTH 6 0
BBX 3 3 3 9
BITMAP
C0
40
20
ENDCHAR
STARTCHAR uni02CD
ENCODING 717
SWIDTH 333 0
DWIDTH 6 0
BBX 6 1 0 -2
BITMAP
FC
ENDCHAR
STARTCHAR uni02CE
ENCODING 718
SWIDTH 333 0
DWIDTH 6 0
BBX 3 3 3 -4
BITMAP
C0
40
20
ENDCHAR
STARTCHAR uni02CF
ENCODING 719
SWIDTH 333 0
DWIDTH 6 0
BBX 3 3 3 -4
BITMAP
60
40
80
ENDCHAR
STARTCHAR breve
ENCODING 728
SWIDTH 333 0
DWIDTH 6 0
BBX 5 2 1 9
BITMAP
88
70
ENDCHAR
STARTCHAR dotaccent
ENCODING 729
SWIDTH 333 0
DWIDTH 6 0
BBX 2 2 3 9
BITMAP
C0
C0
ENDCHAR
STARTCHAR ring
ENCODING 730
SWIDTH 333 0
DWIDTH 6 0
BBX 4 3 2 9
BITMAP
60
90
60
ENDCHAR
STARTCHAR ogonek
ENCODING 731
SWIDTH 333 0
DWIDTH 6 0
BBX 4 4 1 -3
BITMAP
40
80
90
E0
ENDCHAR
STARTCHAR tilde
ENCODING 732
SWIDTH 333 0
DWIDTH 6 0
BBX 6 2 1 9
BITMAP
74
B8
ENDCHAR
STARTCHAR hungarumlaut
ENCODING 733
SWIDTH 333 0
DWIDTH 6 0
BBX 6 3 0 9
BITMAP
6C
48
90
ENDCHAR
STARTCHAR uni02EE
ENCODING 750
SWIDTH 500 0
DWIDTH 8 0
BBX 7 5 1 6
BITMAP
66
66
22
44
88
ENDCHAR
STARTCHAR uni037E
ENCODING 894
SWIDTH 333 0
DWIDTH 5 0
BBX 4 10 0 -3
BITMAP
30
30
00
00
00
60
60
20
40
80
ENDCHAR
STARTCHAR tonos
ENCODING 900
SWIDTH 333 0
DWIDTH 6 0
BBX 3 3 3 9
BITMAP
60
40
80
ENDCHAR
STARTCHAR dieresistonos
ENCODING 901
SWIDTH 333 0
DWIDTH 6 0
BBX 6 6 2 9
BITMAP
18
10
20
00
CC
CC
ENDCHAR
STARTCHAR anoteleia
ENCODING 903
SWIDTH 250 0
DWIDTH 4 0
BBX 2 2 1 3
BITMAP
C0
C0
ENDCHAR
STARTCHAR mu
ENCODING 956
SWIDTH 576 0
DWIDTH 9 0
BBX 9 11 0 -3
BITMAP
3300
7300
3300
3300
6600
6600
6E80
7700
4000
C000
8000
ENDCHAR
STARTCHAR uni1E00
ENCODING 7680
SWIDTH 667 0
DWIDTH 11 0
BBX 11 15 -1 -4
BITMAP
0080
0180
0380
0780
0580
0980
1180
1F80
2180
41C0
E3E0
0000
0600
0900
0600
ENDCHAR
STARTCHAR uni1E01
ENCODING 7681
SWIDTH 500 0
DWIDTH 8 0
BBX 8 12 0 -4
BITMAP
1B
66
66
C6
CC
CC
DD
76
00
18
24
18
ENDCHAR
STARTCHAR uni1E02
ENCODING 7682
SWIDTH 667 0
DWIDTH 11 0
BBX 10 14 0 0
BITMAP
0600
0600
0000
3F00
18C0
18C0
38C0
3180
3F00
3180
7180
6180
6300
FC00
ENDCHAR
STARTCHAR uni1E03
ENCODING 7683
SWIDTH 500 0
DWIDTH 8 0
BBX 7 14 1 0
BITMAP
30
30
00
30
70
30
6C
76
66
C6
C4
CC
D8
60
ENDCHAR
STARTCHAR uni1E04
ENCODING 7684
SWIDTH 667 0
DWIDTH 11 0
BBX 10 14 0 -3
BITMAP
3F00
18C0
18C0
38C0
3180
3F00
3180
7180
6180
6300
FC00
0000
1800
1800
ENDCHAR
STARTCHAR uni1E05
ENCODING 7685
SWIDTH 500 0
DWIDTH 8 0
BBX 7 14 1 -3
BITMAP
30
70
30
6C
76
66
C6
C4
CC
D8
60
00
30
30
ENDCHAR
STARTCHAR uni1E06
ENCODING 7686
SWIDTH 667 0
DWIDTH 11 0
BBX 10 13 0 -2
BITMAP
3F00
18C0
18C0
38C0
3180
3F00
3180
7180
6180
6300
FC00
0000
7E00
ENDCHAR
STARTCHAR uni1E07
ENCODING 7687
SWIDTH 500 0
DWIDTH 8 0
BBX 7 13 1 -2
BITMAP
30
70
30
6C
76
66
C6
C4
CC
D8
60
00
FC
ENDCHAR
STARTCHAR uni1E08
ENCODING 7688
SWIDTH 667 0
DWIDTH 11 0
BBX 11 18 0 -3
BITMAP
0300
0200
0400
0000
07A0
1840
3040
7000
6000
E000
E000
E000
6080
6100
1E00
0C00
2200
1C00
ENDCHAR
STARTCHAR uni1E09
ENCODING 7689
SWIDTH 444 0
DWIDTH 7 0
BBX 6 15 1 -3
BITMAP
0C
08
10
00
1C
2C
40
C0
C0
C0
C8
70
30
88
70
ENDCHAR
STARTCHAR uni1E0A
ENCODING 7690
SWIDTH 722 0
DWIDTH 12 0
BBX 11 14 0 0
BITMAP
0600
0600
0000
3F00
18C0
1860
3860
3060
3060
30C0
70C0
6080
6300
FC00
ENDCHAR
STARTCHAR uni1E0B
ENCODING 7691
SWIDTH 500 0
DWIDTH 8 0
BBX 8 14 0 0
BITMAP
06
06
00
03
07
03
0F
36
66
46
C6
CC
DD
66
ENDCHAR
STARTCHAR uni1E0C
ENCODING 7692
SWIDTH 722 0
DWIDTH 12 0
BBX 11 14 0 -3
BITMAP
3F00
18C0
1860
3860
3060
3060
30C0
70C0
6080
6300
FC00
0000
1800
1800
ENDCHAR
STARTCHAR uni1E0D
ENCODING 7693
SWIDTH 500 0
DWIDTH 8 0
BBX 8 14 0 -3
BITMAP
03
07
03
0F
36
66
46
C6
CC
DD
66
00
18
18
ENDCHAR
STARTCHAR uni1E0E
ENCODING 7694
SWIDTH 722 0
DWIDTH 12 0
BBX 11 13 0 -2
BITMAP
3F00
18C0
1860
3860
3060
3060
30C0
70C0
6080
6300
FC00
0000
7E00
ENDCHAR
STARTCHAR uni1E0F
ENCODING 7695
SWIDTH 500 0
DWIDTH 8 0
BBX 8 13 0 -2
BITMAP
03
07
03
0F
36
66
46
C6
CC
DD
66
00
7E
ENDCHAR
STARTCHAR uni1E10
ENCODING 7696
SWIDTH 722 0
DWIDTH 12 0
BBX 11 14 0 -3
BITMAP
3F00
18C0
1860
3860
3060
3060
30C0
70C0
6080
6300
FC00
0C00
2200
1C00
ENDCHAR
STARTCHAR uni1E11
ENCODING 7697
SWIDTH 500 0
DWIDTH 8 0
BBX 8 14 0 -3
BITMAP
03
07
03
0F
36
66
46
C6
CC
DD
76
18
44
38
ENDCHAR
STARTCHAR uni1E12
ENCODING 7698
SWIDTH 722 0
DWIDTH 12 0
BBX 11 15 0 -4
BITMAP
3F00
18C0
1860
3860
3060
3060
30C0
70C0
6080
6300
FC00
0000
0800
1C00
2200
ENDCHAR
STARTCHAR uni1E13
ENCODING 7699
SWIDTH 500 0
DWIDTH 8 0
BBX 8 15 0 -4
BITMAP
03
07
03
0F
36
66
46
C6
CC
DD
66
00
10
38
44
ENDCHAR
STARTCHAR uni1E14
ENCODING 7700
SWIDTH 667 0
DWIDTH 11 0
BBX 10 17 0 0
BITMAP
1800
0800
0400
0000
1F80
0000
3FC0
1840
1840
3800
3100
3F00
3200
7000
6080
6180
FF00
ENDCHAR
STARTCHAR uni1E15
ENCODING 7701
SWIDTH 444 0
DWIDTH 7 0
BBX 7 14 1 0
BITMAP
30
10
08
00
7E
00
1C
66
44
C8
F0
C4
C8
70
ENDCHAR
STARTCHAR uni1E16
ENCODING 7702
SWIDTH 667 0
DWIDTH 11 0
BBX 10 17 0 0
BITMAP
0300
0200
0400
0000
1F80
0000
3FC0
1840
1840
3800
3100
3F00
3200
7000
6080
6180
FF00
ENDCHAR
STARTCHAR uni1E17
ENCODING 7703
SWIDTH 444 0
DWIDTH 7 0
BBX 7 14 1 0
BITMAP
0C
08
10
00
7E
00
1C
66
44
C8
F0
C4
C8
70
ENDCHAR
STARTCHAR uni1E18
ENCODING 7704
SWIDTH 667 0
DWIDTH 11 0
BBX 10 15 0 -4
BITMAP
3FC0
1840
1840
3800
3100
3F00
3200
7000
6080
6180
FF00
0000
0800
1C00
2200
ENDCHAR
STARTCHAR uni1E19
ENCODING 7705
SWIDTH 444 0
DWIDTH 7 0
BBX 7 12 1 -4
BITMAP
1C
66
44
C8
F0
C4
C8
70
00
20
70
88
ENDCHAR
STARTCHAR uni1E1A
ENCODING 7706
SWIDTH 667 0
DWIDTH 11 0
BBX 10 14 0 -3
BITMAP
3FC0
1840
1840
3800
3100
3F00
3200
7000
6080
6180
FF00
0000
3A00
5C00
ENDCHAR
STARTCHAR uni1E1B
ENCODING 7707
SWIDTH 444 0
DWIDTH 7 0
BBX 7 11 1 -3
BITMAP
1C
66
44
C8
F0
C4
C8
70
00
74
B8
ENDCHAR
STARTCHAR uni1E1C
ENCODING 7708
SWIDTH 667 0
DWIDTH 11 0
BBX 10 17 0 -3
BITMAP
1100
0E00
0000
3FC0
1840
1840
3800
3100
3F00
3200
7000
6080
6180
FF00
0C00
2200
1C00
ENDCHAR
STARTCHAR uni1E1D
ENCODING 7709
SWIDTH 444 0
DWIDTH 7 0
BBX 7 14 1 -3
BITMAP
44
38
00
1C
66
44
C8
F0
C4
C8
70
30
88
70
ENDCHAR
STARTCHAR uni1E1E
ENCODING 7710
SWIDTH 667 0
DWIDTH 11 0
BBX 10 14 0 0
BITMAP
0600
0600
0000
3FC0
1840
1840
3800
3100
3F00
3200
7000
6000
6000
F000
ENDCHAR
STARTCHAR uni1E1F
ENCODING 7711
SWIDTH 333 0
DWIDTH 6 0
BBX 11 17 -3 -3
BITMAP
0300
0300
0000
01C0
0360
0300
0300
0F80
0600
0600
0600
0C00
0C00
0C00
1800
D800
7000
ENDCHAR
STARTCHAR uni1E20
ENCODING 7712
SWIDTH 722 0
DWIDTH 12 0
BBX 12 13 0 0
BITMAP
0FC0
0000
07A0
1860
3020
7000
6000
E1F0
E0E0
E0C0
60C0
61C0
1E00
ENDCHAR
STARTCHAR uni1E21
ENCODING 7713
SWIDTH 500 0
DWIDTH 8 0
BBX 8 13 0 -3
BITMAP
7E
00
1D
26
66
64
38
40
FC
7E
82
84
78
ENDCHAR
STARTCHAR uni1E22
ENCODING 7714
SWIDTH 778 0
DWIDTH 13 0
BBX 13 14 0 0
BITMAP
0300
0300
0000
3EF8
1C70
1860
38E0
30E0
3FC0
30C0
71C0
6180
6180
F3C0
ENDCHAR
STARTCHAR uni1E23
ENCODING 7715
SWIDTH 556 0
DWIDTH 9 0
BBX 8 14 1 0
BITMAP
30
30
00
30
70
30
66
6E
76
66
CC
CC
CD
CE
ENDCHAR
STARTCHAR uni1E24
ENCODING 7716
SWIDTH 778 0
DWIDTH 13 0
BBX 13 14 0 -3
BITMAP
3EF8
1C70
1860
38E0
30E0
3FC0
30C0
71C0
6180
6180
F3C0
0000
0600
0600
ENDCHAR
STARTCHAR uni1E25
ENCODING 7717
SWIDTH 556 0
DWIDTH 9 0
BBX 8 14 1 -3
BITMAP
30
70
30
66
6E
76
66
CC
CC
CD
CE
00
18
18
ENDCHAR
STARTCHAR uni1E26
ENCODING 7718
SWIDTH 778 0
DWIDTH 13 0
BBX 13 14 0 0
BITMAP
0CC0
0CC0
0000
3EF8
1C70
1860
38E0
30E0
3FC0
30C0
71C0
6180
6180
F3C0
ENDCHAR
STARTCHAR uni1E27
ENCODING 7719
SWIDTH 556 0
DWIDTH 9 0
BBX 8 14 1 0
BITMAP
CC
CC
00
30
70
30
66
6E
76
66
CC
CC
CD
CE
ENDCHAR
STARTCHAR uni1E28
ENCODING 7720
SWIDTH 778 0
DWIDTH 13 0
BBX 13 14 0 -3
BITMAP
3EF8
1C70
1860
38E0
30E0
3FC0
30C0
71C0
6180
6180
F7C0
0600
1100
0E00
ENDCHAR
STARTCHAR uni1E29
ENCODING 7721
SWIDTH 556 0
DWIDTH 9 0
BBX 8 14 1 -3
BITMAP
30
70
30
66
6E
76
66
CC
CC
CD
DE
18
44
38
ENDCHAR
STARTCHAR uni1E2A
ENCODING 7722
SWIDTH 778 0
DWIDTH 13 0
BBX 13 14 0 -3
BITMAP
3EF8
1C70
1860
38E0
30E0
3FC0
30C0
71C0
6180
6180
F3C0
0000
1100
0E00
ENDCHAR
STARTCHAR uni1E2B
ENCODING 7723
SWIDTH 556 0
DWIDTH 9 0
BBX 8 14 1 -3
BITMAP
30
70
30
66
6E
76
66
CC
CC
CD
CE
00
44
38
ENDCHAR
STARTCHAR uni1E2C
ENCODING 7724
SWIDTH 389 0
DWIDTH 6 0
BBX 7 14 -1 -3
BITMAP
1E
0C
0C
1C
18
18
18
38
30
30
78
00
74
B8
ENDCHAR
STARTCHAR uni1E2D
ENCODING 7725
SWIDTH 278 0
DWIDTH 5 0
BBX 6 14 0 -3
BITMAP
18
18
00
30
70
30
30
60
60
68
70
00
74
B8
ENDCHAR
STARTCHAR uni1E2E
ENCODING 7726
SWIDTH 389 0
DWIDTH 6 0
BBX 8 18 0 0
BITMAP
06
04
08
00
33
33
00
3C
18
18
38
30
30
30
70
60
60
F0
ENDCHAR
STARTCHAR uni1E2F
ENCODING 7727
SWIDTH 278 0
DWIDTH 5 0
BBX 6 15 0 0
BITMAP
18
10
20
00
CC
CC
00
30
70
30
30
60
60
68
70
ENDCHAR
STARTCHAR uni1E30
ENCODING 7728
SWIDTH 667 0
DWIDTH 11 0
BBX 10 15 0 0
BITMAP
0300
0200
0400
0000
3DC0
1880
1900
3A00
3400
3E00
3600
7700
6300
6380
F3C0
ENDCHAR
STARTCHAR uni1E31
ENCODING 7729
SWIDTH 500 0
DWIDTH 8 0
BBX 7 15 1 0
BITMAP
18
10
20
00
30
70
30
66
64
68
70
D0
D8
DA
CC
ENDCHAR
STARTCHAR uni1E32
ENCODING 7730
SWIDTH 667 0
DWIDTH 11 0
BBX 10 14 0 -3
BITMAP
3DC0
1880
1900
3A00
3400
3E00
3600
7700
6300
6380
F3C0
0000
0C00
0C00
ENDCHAR
STARTCHAR uni1E33
ENCODING 7731
SWIDTH 500 0
DWIDTH 8 0
BBX 7 14 1 -3
BITMAP
30
70
30
66
64
68
70
D0
D8
DA
CC
00
30
30
ENDCHAR
STARTCHAR uni1E34
ENCODING 7732
SWIDTH 667 0
DWIDTH 11 0
BBX 10 13 0 -2
BITMAP
3DC0
1880
1900
3A00
3400
3E00
3600
7700
6300
6380
F3C0
0000
3F00
ENDCHAR
STARTCHAR uni1E35
ENCODING 7733
SWIDTH 500 0
DWIDTH 8 0
BBX 7 13 1 -2
BITMAP
30
70
30
66
64
68
70
D0
D8
DA
CC
00
FC
ENDCHAR
STARTCHAR uni1E36
ENCODING 7734
SWIDTH 611 0
DWIDTH 10 0
BBX 9 14 0 -3
BITMAP
3E00
1800
1800
3800
3000
3000
3000
7000
6080
6180
FF00
0000
1800
1800
ENDCHAR
STARTCHAR uni1E37
ENCODING 7735
SWIDTH 278 0
DWIDTH 5 0
BBX 4 14 1 -3
BITMAP
30
70
30
60
60
60
60
C0
C0
D0
60
00
60
60
ENDCHAR
STARTCHAR uni1E38
ENCODING 7736
SWIDTH 611 0
DWIDTH 10 0
BBX 9 16 0 -3
BITMAP
7E00
0000
3E00
1800
1800
3800
3000
3000
3000
7000
6080
6180
FF00
0000
1800
1800
ENDCHAR
STARTCHAR uni1E39
ENCODING 7737
SWIDTH 278 0
DWIDTH 5 0
BBX 6 16 0 -3
BITMAP
FC
00
18
38
18
30
30
30
30
60
60
68
30
00
30
30
ENDCHAR
STARTCHAR uni1E3A
ENCODING 7738
SWIDTH 611 0
DWIDTH 10 0
BBX 9 13 0 -2
BITMAP
3E00
1800
1800
3800
3000
3000
3000
7000
6080
6180
FF00
0000
7E00
ENDCHAR
STARTCHAR uni1E3B
ENCODING 7739
SWIDTH 278 0
DWIDTH 5 0
BBX 6 13 0 -2
BITMAP
18
38
18
30
30
30
30
60
60
68
30
00
FC
ENDCHAR
STARTCHAR uni1E3C
ENCODING 7740
SWIDTH 611 0
DWIDTH 10 0
BBX 9 15 0 -4
BITMAP
3E00
1800
1800
3800
3000
3000
3000
7000
6080
6180
FF00
0000
0800
1C00
2200
ENDCHAR
STARTCHAR uni1E3D
ENCODING 7741
SWIDTH 278 0
DWIDTH 5 0
BBX 5 15 0 -4
BITMAP
18
38
18
30
30
30
30
60
60
68
30
00
20
70
88
ENDCHAR
STARTCHAR uni1E3E
ENCODING 7742
SWIDTH 889 0
DWIDTH 15 0
BBX 15 15 0 0
BITMAP
0060
0040
0080
0000
380E
181C
1C3C
1C3C
2C58
2C98
2E98
4738
4630
4430
E478
ENDCHAR
STARTCHAR uni1E3F
ENCODING 7743
SWIDTH 778 0
DWIDTH 13 0
BBX 12 12 1 0
BITMAP
0300
0200
0400
0000
6EE0
F760
6660
6660
CCC0
CCC0
CCD0
CCE0
ENDCHAR
STARTCHAR uni1E40
ENCODING 7744
SWIDTH 889 0
DWIDTH 15 0
BBX 15 14 0 0
BITMAP
0180
0180
0000
380E
181C
1C3C
1C3C
2C58
2C98
2E98
4738
4630
4430
E478
ENDCHAR
STARTCHAR uni1E41
ENCODING 7745
SWIDTH 778 0
DWIDTH 13 0
BBX 12 11 1 0
BITMAP
0600
0600
0000
6EE0
F760
6660
6660
CCC0
CCC0
CCD0
CCE0
ENDCHAR
STARTCHAR uni1E42
ENCODING 7746
SWIDTH 889 0
DWIDTH 15 0
BBX 15 14 0 -3
BITMAP
380E
181C
1C3C
1C3C
2C58
2C98
2E98
4738
4630
4430
E478
0000
0300
0300
ENDCHAR
STARTCHAR uni1E43
ENCODING 7747
SWIDTH 778 0
DWIDTH 13 0
BBX 12 11 1 -3
BITMAP
6EE0
F760
6660
6660
CCC0
CCC0
CCD0
CCE0
0000
0600
0600
ENDCHAR
STARTCHAR uni1E44
ENCODING 7748
SWIDTH 722 0
DWIDTH 12 0
BBX 12 14 0 0
BITMAP
0600
0600
0000
3870
1820
1C20
3C20
2E40
2640
2740
43C0
4380
4180
E080
ENDCHAR
STARTCHAR uni1E45
ENCODING 7749
SWIDTH 556 0
DWIDTH 9 0
BBX 8 11 1 0
BITMAP
18
18
00
66
EE
76
66
CC
CC
CD
CE
ENDCHAR
STARTCHAR uni1E46
ENCODING 7750
SWIDTH 722 0
DWIDTH 12 0
BBX 12 14 0 -3
BITMAP
3870
1820
1C20
3C20
2E40
2640
2740
43C0
4380
4180
E080
0000
0C00
0C00
ENDCHAR
STARTCHAR uni1E47
ENCODING 7751
SWIDTH 556 0
DWIDTH 9 0
BBX 8 11 1 -3
BITMAP
66
EE
76
66
CC
CC
CD
CE
00
18
18
ENDCHAR
STARTCHAR uni1E48
ENCODING 7752
SWIDTH 722 0
DWIDTH 12 0
BBX 12 13 0 -2
BITMAP
3870
1820
1C20
3C20
2E40
2640
2740
43C0
4380
4180
E080
0000
3F00
ENDCHAR
STARTCHAR uni1E49
ENCODING 7753
SWIDTH 556 0
DWIDTH 9 0
BBX 8 10 1 -2
BITMAP
66
EE
76
66
CC
CC
CD
CE
00
7E
ENDCHAR
STARTCHAR uni1E4A
ENCODING 7754
SWIDTH 722 0
DWIDTH 12 0
BBX 12 15 0 -4
BITMAP
3870
1820
1C20
3C20
2E40
2640
2740
43C0
4380
4180
E080
0000
0400
0E00
1100
ENDCHAR
STARTCHAR uni1E4B
ENCODING 7755
SWIDTH 556 0
DWIDTH 9 0
BBX 8 12 1 -4
BITMAP
66
EE
76
66
CC
CC
CD
CE
00
10
38
44
ENDCHAR
STARTCHAR uni1E4C
ENCODING 7756
SWIDTH 722 0
DWIDTH 12 0
BBX 10 18 1 0
BITMAP
0300
0200
0400
0000
0E40
1380
0000
0700
1880
30C0
70C0
60C0
E1C0
C180
C380
C300
4600
3800
ENDCHAR
STARTCHAR uni1E4D
ENCODING 7757
SWIDTH 500 0
DWIDTH 8 0
BBX 8 15 0 0
BITMAP
06
04
08
00
1D
2E
00
0C
32
63
63
C6
C6
4C
30
ENDCHAR
STARTCHAR uni1E4E
ENCODING 7758
SWIDTH 722 0
DWIDTH 12 0
BBX 10 17 1 0
BITMAP
1980
1980
0000
0E40
1380
0000
0700
1880
30C0
70C0
60C0
E1C0
C180
C380
C300
4600
3800
ENDCHAR
STARTCHAR uni1E4F
ENCODING 7759
SWIDTH 500 0
DWIDTH 8 0
BBX 8 14 0 0
BITMAP
33
33
00
1D
2E
00
0C
32
63
63
C6
C6
4C
30
ENDCHAR
STARTCHAR uni1E50
ENCODING 7760
SWIDTH 722 0
DWIDTH 12 0
BBX 10 17 1 0
BITMAP
0C00
0400
0200
0000
1F80
0000
0700
1880
30C0
70C0
60C0
E1C0
C180
C380
C300
4600
3800
ENDCHAR
STARTCHAR uni1E51
ENCODING 7761
SWIDTH 500 0
DWIDTH 8 0
BBX 8 14 0 0
BITMAP
30
10
08
00
7E
00
0C
32
63
63
C6
C6
4C
30
ENDCHAR
STARTCHAR uni1E52
ENCODING 7762
SWIDTH 722 0
DWIDTH 12 0
BBX 10 17 1 0
BITMAP
0300
0200
0400
0000
1F80
0000
0700
1880
30C0
70C0
60C0
E1C0
C180
C380
C300
4600
3800
ENDCHAR
STARTCHAR uni1E53
ENCODING 7763
SWIDTH 500 0
DWIDTH 8 0
BBX 8 14 0 0
BITMAP
0C
08
10
00
7E
00
0C
32
63
63
C6
C6
4C
30
ENDCHAR
STARTCHAR uni1E54
ENCODING 7764
SWIDTH 611 0
DWIDTH 10 0
BBX 10 15 0 0
BITMAP
0300
0200
0400
0000
3F00
18C0
18C0
38C0
3180
3E00
3000
7000
6000
6000
F800
ENDCHAR
STARTCHAR uni1E55
ENCODING 7765
SWIDTH 500 0
DWIDTH 8 0
BBX 9 15 -1 -3
BITMAP
0600
0400
0800
0000
1B00
3D80
1980
1980
3100
3300
3600
7800
6000
6000
F000
ENDCHAR
STARTCHAR uni1E56
ENCODING 7766
SWIDTH 611 0
DWIDTH 10 0
BBX 10 14 0 0
BITMAP
0600
0600
0000
3F00
18C0
18C0
38C0
3180
3E00
3000
7000
6000
6000
F800
ENDCHAR
STARTCHAR uni1E57
ENCODING 7767
SWIDTH 500 0
DWIDTH 8 0
BBX 9 14 -1 -3
BITMAP
0C00
0C00
0000
1B00
3D80
1980
1980
3100
3300
3600
7800
6000
6000
F000
ENDCHAR
STARTCHAR uni1E58
ENCODING 7768
SWIDTH 667 0
DWIDTH 11 0
BBX 10 14 0 0
BITMAP
0600
0600
0000
3F00
18C0
18C0
38C0
3180
3E00
3600
7700
6300
6300
F1C0
ENDCHAR
STARTCHAR uni1E59
ENCODING 7769
SWIDTH 389 0
DWIDTH 6 0
BBX 6 11 1 0
BITMAP
30
30
00
6C
F4
60
60
C0
C0
C0
C0
ENDCHAR
STARTCHAR uni1E5A
ENCODING 7770
SWIDTH 667 0
DWIDTH 11 0
BBX 10 14 0 -3
BITMAP
3F00
18C0
18C0
38C0
3180
3E00
3600
7700
6300
6300
F1C0
0000
0C00
0C00
ENDCHAR
STARTCHAR uni1E5B
ENCODING 7771
SWIDTH 389 0
DWIDTH 6 0
BBX 6 11 1 -3
BITMAP
6C
F4
60
60
C0
C0
C0
C0
00
60
60
ENDCHAR
STARTCHAR uni1E5C
ENCODING 7772
SWIDTH 667 0
DWIDTH 11 0
BBX 10 16 0 -3
BITMAP
1F80
0000
3F00
18C0
18C0
38C0
3180
3E00
3600
7700
6300
6300
F1C0
0000
0C00
0C00
ENDCHAR
STARTCHAR uni1E5D
ENCODING 7773
SWIDTH 389 0
DWIDTH 6 0
BBX 6 13 1 -3
BITMAP
FC
00
6C
F4
60
60
C0
C0
C0
C0
00
60
60
ENDCHAR
STARTCHAR uni1E5E
ENCODING 7774
SWIDTH 667 0
DWIDTH 11 0
BBX 10 13 0 -2
BITMAP
3F00
18C0
18C0
38C0
3180
3E00
3600
7700
6300
6300
F1C0
0000
3F00
ENDCHAR
STARTCHAR uni1E5F
ENCODING 7775
SWIDTH 389 0
DWIDTH 6 0
BBX 7 10 0 -2
BITMAP
36
7A
30
30
60
60
60
60
00
FC
ENDCHAR
STARTCHAR uni1E60
ENCODING 7776
SWIDTH 556 0
DWIDTH 9 0
BBX 8 14 0 0
BITMAP
0C
0C
00
1D
23
61
70
78
3C
1E
0E
86
C4
B8
ENDCHAR
STARTCHAR uni1E61
ENCODING 7777
SWIDTH 389 0
DWIDTH 6 0
BBX 6 11 0 0
BITMAP
30
30
00
34
6C
64
70
38
98
D8
B0
ENDCHAR
STARTCHAR uni1E62
ENCODING 7778
SWIDTH 556 0
DWIDTH 9 0
BBX 8 14 0 -3
BITMAP
1D
23
61
70
78
3C
1E
0E
86
C4
B8
00
30
30
ENDCHAR
STARTCHAR uni1E63
ENCODING 7779
SWIDTH 389 0
DWIDTH 6 0
BBX 6 11 0 -3
BITMAP
34
6C
64
70
38
98
D8
B0
00
30
30
ENDCHAR
STARTCHAR uni1E64
ENCODING 7780
SWIDTH 556 0
DWIDTH 9 0
BBX 8 18 0 0
BITMAP
0C
0C
00
06
04
08
00
1D
23
61
70
78
3C
1E
0E
86
C4
B8
ENDCHAR
STARTCHAR uni1E65
ENCODING 7781
SWIDTH 389 0
DWIDTH 6 0
BBX 6 15 0 0
BITMAP
18
18
00
0C
08
10
00
34
6C
64
70
38
98
D8
B0
ENDCHAR
STARTCHAR uni1E66
ENCODING 7782
SWIDTH 556 0
DWIDTH 9 0
BBX 8 18 0 0
BITMAP
0C
0C
00
11
0E
04
00
1D
23
61
70
78
3C
1E
0E
86
C4
B8
ENDCHAR
STARTCHAR uni1E67
ENCODING 7783
SWIDTH 389 0
DWIDTH 6 0
BBX 7 15 0 0
BITMAP
18
18
00
22
1C
08
00
34
6C
64
70
38
98
D8
B0
ENDCHAR
STARTCHAR uni1E68
ENCODING 7784
SWIDTH 556 0
DWIDTH 9 0
BBX 8 17 0 -3
BITMAP
18
18
00
1D
23
61
70
78
3C
1E
0E
86
C4
B8
00
30
30
ENDCHAR
STARTCHAR uni1E69
ENCODING 7785
SWIDTH 389 0
DWIDTH 6 0
BBX 6 14 0 -3
BITMAP
30
30
00
34
6C
64
70
38
98
D8
B0
00
30
30
ENDCHAR
STARTCHAR uni1E6A
ENCODING 7786
SWIDTH 611 0
DWIDTH 10 0
BBX 10 14 1 0
BITMAP
0C00
0C00
0000
FFC0
CCC0
8C80
1C00
1800
1800
1800
3800
3000
3000
F800
ENDCHAR
STARTCHAR uni1E6B
ENCODING 7787
SWIDTH 278 0
DWIDTH 5 0
BBX 5 13 1 0
BITMAP
30
30
00
10
30
F8
60
60
60
C0
C0
D0
60
ENDCHAR
STARTCHAR uni1E6C
ENCODING 7788
SWIDTH 611 0
DWIDTH 10 0
BBX 10 14 1 -3
BITMAP
FFC0
CCC0
8C80
1C00
1800
1800
1800
3800
3000
3000
F800
0000
3000
3000
ENDCHAR
STARTCHAR uni1E6D
ENCODING 7789
SWIDTH 278 0
DWIDTH 5 0
BBX 5 13 1 -3
BITMAP
10
30
F8
60
60
60
C0
C0
D0
60
00
60
60
ENDCHAR
STARTCHAR uni1E6E
ENCODING 7790
SWIDTH 611 0
DWIDTH 10 0
BBX 10 13 1 -2
BITMAP
FFC0
CCC0
8C80
1C00
1800
1800
1800
3800
3000
3000
F800
0000
FC00
ENDCHAR
STARTCHAR uni1E6F
ENCODING 7791
SWIDTH 278 0
DWIDTH 5 0
BBX 6 12 0 -2
BITMAP
08
18
7C
30
30
30
60
60
68
30
00
FC
ENDCHAR
STARTCHAR uni1E70
ENCODING 7792
SWIDTH 611 0
DWIDTH 10 0
BBX 10 15 1 -4
BITMAP
FFC0
CCC0
8C80
1C00
1800
1800
1800
3800
3000
3000
F800
0000
1000
3800
4400
ENDCHAR
STARTCHAR uni1E71
ENCODING 7793
SWIDTH 278 0
DWIDTH 5 0
BBX 6 14 0 -4
BITMAP
08
18
7C
30
30
30
60
60
68
30
00
20
70
88
ENDCHAR
STARTCHAR uni1E72
ENCODING 7794
SWIDTH 722 0
DWIDTH 12 0
BBX 12 14 1 -3
BITMAP
7CF0
3860
3040
7040
7080
6080
E080
C100
C100
C200
7C00
0000
6600
6600
ENDCHAR
STARTCHAR uni1E73
ENCODING 7795
SWIDTH 556 0
DWIDTH 9 0
BBX 8 11 1 -3
BITMAP
66
E6
66
66
CC
CC
DD
6E
00
66
66
ENDCHAR
STARTCHAR uni1E74
ENCODING 7796
SWIDTH 722 0
DWIDTH 12 0
BBX 12 14 1 -3
BITMAP
7CF0
3860
3040
7040
7080
6080
E080
C100
C100
C200
7C00
0000
3A00
5C00
ENDCHAR
STARTCHAR uni1E75
ENCODING 7797
SWIDTH 556 0
DWIDTH 9 0
BBX 8 11 1 -3
BITMAP
66
E6
66
66
CC
CC
DD
6E
00
3A
5C
ENDCHAR
STARTCHAR uni1E76
ENCODING 7798
SWIDTH 722 0
DWIDTH 12 0
BBX 12 15 1 -4
BITMAP
7CF0
3860
3040
7040
7080
6080
E080
C100
C100
C200
7C00
0000
0800
1C00
2200
ENDCHAR
STARTCHAR uni1E77
ENCODING 7799
SWIDTH 556 0
DWIDTH 9 0
BBX 8 12 1 -4
BITMAP
66
E6
66
66
CC
CC
DD
6E
00
10
38
44
ENDCHAR
STARTCHAR uni1E78
ENCODING 7800
SWIDTH 722 0
DWIDTH 12 0
BBX 12 18 1 0
BITMAP
0300
0200
0400
0000
0E80
1700
0000
7CF0
3860
3040
7040
7080
6080
E080
C100
C100
C200
7C00
ENDCHAR
STARTCHAR uni1E79
ENCODING 7801
SWIDTH 556 0
DWIDTH 9 0
BBX 8 15 1 0
BITMAP
0C
08
10
00
3A
5C
00
66
E6
66
66
CC
CC
DD
6E
ENDCHAR
STARTCHAR uni1E7A
ENCODING 7802
SWIDTH 722 0
DWIDTH 12 0
BBX 12 16 1 0
BITMAP
1980
1980
0000
1F80
0000
7CF0
3860
3040
7040
7080
6080
E080
C100
C100
C200
7C00
ENDCHAR
STARTCHAR uni1E7B
ENCODING 7803
SWIDTH 556 0
DWIDTH 9 0
BBX 8 13 1 0
BITMAP
66
66
00
7E
00
66
E6
66
66
CC
CC
DD
6E
ENDCHAR
STARTCHAR uni1E7C
ENCODING 7804
SWIDTH 667 0
DWIDTH 11 0
BBX 10 14 1 0
BITMAP
1D00
2E00
0000
F9C0
6080
6100
6100
7200
3200
3400
3400
3800
1800
1000
ENDCHAR
STARTCHAR uni1E7D
ENCODING 7805
SWIDTH 444 0
DWIDTH 7 0
BBX 6 11 1 0
BITMAP
74
B8
00
4C
EC
64
68
68
70
60
40
ENDCHAR
STARTCHAR uni1E7E
ENCODING 7806
SWIDTH 667 0
DWIDTH 11 0
BBX 10 14 1 -3
BITMAP
F9C0
6080
6100
6100
7200
3200
3400
3400
3800
1800
1000
0000
1800
1800
ENDCHAR
STARTCHAR uni1E7F
ENCODING 7807
SWIDTH 444 0
DWIDTH 7 0
BBX 6 11 1 -3
BITMAP
4C
EC
64
68
68
70
60
40
00
60
60
ENDCHAR
STARTCHAR Wgrave
ENCODING 7808
SWIDTH 889 0
DWIDTH 15 0
BBX 15 15 0 0
BITMAP
0600
0200
0100
0000
FBEE
6184
6184
6188
73C8
32D0
34D0
34E0
38E0
1840
1040
ENDCHAR
STARTCHAR wgrave
ENCODING 7809
SWIDTH 667 0
DWIDTH 11 0
BBX 10 12 1 0
BITMAP
1800
0800
0400
0000
64C0
E4C0
6440
6E80
7680
6700
4600
4400
ENDCHAR
STARTCHAR Wacute
ENCODING 7810
SWIDTH 889 0
DWIDTH 15 0
BBX 15 15 0 0
BITMAP
0180
0100
0200
0000
FBEE
6184
6184
6188
73C8
32D0
34D0
34E0
38E0
1840
1040
ENDCHAR
STARTCHAR wacute
ENCODING 7811
SWIDTH 667 0
DWIDTH 11 0
BBX 10 12 1 0
BITMAP
0600
0400
0800
0000
64C0
E4C0
6440
6E80
7680
6700
4600
4400
ENDCHAR
STARTCHAR Wdieresis
ENCODING 7812
SWIDTH 889 0
DWIDTH 15 0
BBX 15 14 0 0
BITMAP
0CC0
0CC0
0000
FBEE
6184
6184
6188
73C8
32D0
34D0
34E0
38E0
1840
1040
ENDCHAR
STARTCHAR wdieresis
ENCODING 7813
SWIDTH 667 0
DWIDTH 11 0
BBX 10 11 1 0
BITMAP
3300
3300
0000
64C0
E4C0
6440
6E80
7680
6700
4600
4400
ENDCHAR
STARTCHAR uni1E86
ENCODING 7814
SWIDTH 889 0
DWIDTH 15 0
BBX 15 14 0 0
BITMAP
0300
0300
0000
FBEE
6184
6184
6188
73C8
32D0
34D0
34E0
38E0
1840
1040
ENDCHAR
STARTCHAR uni1E87
ENCODING 7815
SWIDTH 667 0
DWIDTH 11 0
BBX 10 11 1 0
BITMAP
0C00
0C00
0000
64C0
E4C0
6440
6E80
7680
6700
4600
4400
ENDCHAR
STARTCHAR uni1E88
ENCODING 7816
SWIDTH 889 0
DWIDTH 15 0
BBX 15 14 0 -3
BITMAP
FBEE
6184
6184
6188
73C8
32D0
34D0
34E0
38E0
1840
1040
0000
0300
0300
ENDCHAR
STARTCHAR uni1E89
ENCODING 7817
SWIDTH 667 0
DWIDTH 11 0
BBX 10 11 1 -3
BITMAP
64C0
E4C0
6440
6E80
7680
6700
4600
4400
0000
0C00
0C00
ENDCHAR
STARTCHAR uni1E8A
ENCODING 7818
SWIDTH 667 0
DWIDTH 11 0
BBX 11 14 0 0
BITMAP
0600
0600
0000
3CE0
1840
1C80
0D00
0E00
0600
0E00
1700
2300
4380
E7C0
ENDCHAR
STARTCHAR uni1E8B
ENCODING 7819
SWIDTH 500 0
DWIDTH 8 0
BBX 8 11 0 0
BITMAP
18
18
00
63
35
38
18
18
3C
AD
C6
ENDCHAR
STARTCHAR uni1E8C
ENCODING 7820
SWIDTH 667 0
DWIDTH 11 0
BBX 11 14 0 0
BITMAP
1980
1980
0000
3CE0
1840
1C80
0D00
0E00
0600
0E00
1700
2300
4380
E7C0
ENDCHAR
STARTCHAR uni1E8D
ENCODING 7821
SWIDTH 500 0
DWIDTH 8 0
BBX 8 11 0 0
BITMAP
66
66
00
63
35
38
18
18
3C
AD
C6
ENDCHAR
STARTCHAR uni1E8E
ENCODING 7822
SWIDTH 611 0
DWIDTH 10 0
BBX 9 14 1 0
BITMAP
1800
1800
0000
F380
6100
7200
3400
3800
1800
1800
3000
3000
3000
F800
ENDCHAR
STARTCHAR uni1E8F
ENCODING 7823
SWIDTH 444 0
DWIDTH 7 0
BBX 8 14 -1 -3
BITMAP
0C
0C
00
13
39
19
1A
1A
1C
0C
08
10
A0
C0
ENDCHAR
STARTCHAR uni1E90
ENCODING 7824
SWIDTH 611 0
DWIDTH 10 0
BBX 10 15 0 0
BITMAP
0400
0E00
1100
0000
3FC0
6380
4300
0600
0E00
0C00
1800
3800
3080
7180
FF00
ENDCHAR
STARTCHAR uni1E91
ENCODING 7825
SWIDTH 389 0
DWIDTH 6 0
BBX 7 13 0 -1
BITMAP
10
38
44
00
3E
7C
48
10
20
60
F0
34
18
ENDCHAR
STARTCHAR uni1E92
ENCODING 7826
SWIDTH 611 0
DWIDTH 10 0
BBX 10 14 0 -3
BITMAP
3FC0
6380
4300
0600
0E00
0C00
1800
3800
3080
7180
FF00
0000
0C00
0C00
ENDCHAR
STARTCHAR uni1E93
ENCODING 7827
SWIDTH 389 0
DWIDTH 6 0
BBX 7 12 0 -4
BITMAP
3E
7C
48
10
20
60
F0
34
18
00
30
30
ENDCHAR
STARTCHAR uni1E94
ENCODING 7828
SWIDTH 611 0
DWIDTH 10 0
BBX 10 13 0 -2
BITMAP
3FC0
6380
4300
0600
0E00
0C00
1800
3800
3080
7180
FF00
0000
3F00
ENDCHAR
STARTCHAR uni1E95
ENCODING 7829
SWIDTH 389 0
DWIDTH 6 0
BBX 7 11 0 -3
BITMAP
3E
7C
48
10
20
60
F0
34
18
00
FC
ENDCHAR
STARTCHAR uni1E96
ENCODING 7830
SWIDTH 556 0
DWIDTH 9 0
BBX 8 13 1 -2
BITMAP
30
70
30
66
6E
76
66
CC
CC
CD
CE
00
7E
ENDCHAR
STARTCHAR uni1E97
ENCODING 7831
SWIDTH 278 0
DWIDTH 5 0
BBX 6 13 1 0
BITMAP
CC
CC
00
10
30
F8
60
60
60
C0
C0
D0
60
ENDCHAR
STARTCHAR uni1E98
ENCODING 7832
SWIDTH 667 0
DWIDTH 11 0
BBX 10 12 1 0
BITMAP
0C00
1200
0C00
0000
64C0
E4C0
6440
6E80
7680
6700
4600
4400
ENDCHAR
STARTCHAR uni1E99
ENCODING 7833
SWIDTH 444 0
DWIDTH 7 0
BBX 8 15 -1 -3
BITMAP
0C
12
0C
00
13
39
19
1A
1A
1C
0C
08
10
A0
C0
ENDCHAR
STARTCHAR uni1EA0
ENCODING 7840
SWIDTH 667 0
DWIDTH 11 0
BBX 11 14 -1 -3
BITMAP
0080
0180
0380
0780
0580
0980
1180
1F80
2180
41C0
E3E0
0000
0600
0600
ENDCHAR
STARTCHAR uni1EA1
ENCODING 7841
SWIDTH 500 0
DWIDTH 8 0
BBX 8 11 0 -3
BITMAP
1B
66
66
C6
CC
CC
DD
76
00
18
18
ENDCHAR
STARTCHAR uni1EA4
ENCODING 7844
SWIDTH 667 0
DWIDTH 11 0
BBX 11 19 -1 0
BITMAP
00C0
0080
0100
0000
0080
01C0
0220
0000
0100
0100
0300
0780
0580
0980
1180
1F80
2180
41C0
E3E0
ENDCHAR
STARTCHAR uni1EA5
ENCODING 7845
SWIDTH 500 0
DWIDTH 8 0
BBX 8 16 0 0
BITMAP
06
04
08
00
08
1C
22
00
1B
66
66
C6
CC
CC
DD
76
ENDCHAR
STARTCHAR uni1EA6
ENCODING 7846
SWIDTH 667 0
DWIDTH 11 0
BBX 11 19 -1 0
BITMAP
0600
0200
0100
0000
0080
01C0
0220
0000
0100
0100
0300
0780
0580
0980
1180
1F80
2180
41C0
E3E0
ENDCHAR
STARTCHAR uni1EA7
ENCODING 7847
SWIDTH 500 0
DWIDTH 8 0
BBX 8 16 0 0
BITMAP
30
10
08
00
08
1C
22
00
1B
66
66
C6
CC
CC
DD
76
ENDCHAR
STARTCHAR uni1EAA
ENCODING 7850
SWIDTH 667 0
DWIDTH 11 0
BBX 11 18 -1 0
BITMAP
03A0
05C0
0000
0080
01C0
0220
0000
0100
0100
0300
0780
0580
0980
1180
1F80
2180
41C0
E3E0
ENDCHAR
STARTCHAR uni1EAB
ENCODING 7851
SWIDTH 500 0
DWIDTH 8 0
BBX 8 15 0 0
BITMAP
1D
2E
00
08
1C
22
00
1B
66
66
C6
CC
CC
DD
76
ENDCHAR
STARTCHAR uni1EAC
ENCODING 7852
SWIDTH 667 0
DWIDTH 11 0
BBX 11 18 -1 -3
BITMAP
0200
0700
0880
0000
0080
0180
0380
0780
0580
0980
1180
1F80
2180
41C0
E3E0
0000
0600
0600
ENDCHAR
STARTCHAR uni1EAD
ENCODING 7853
SWIDTH 500 0
DWIDTH 8 0
BBX 8 15 0 -3
BITMAP
08
1C
22
00
1B
66
66
C6
CC
CC
DD
76
00
18
18
ENDCHAR
STARTCHAR uni1EAE
ENCODING 7854
SWIDTH 667 0
DWIDTH 11 0
BBX 11 18 -1 0
BITMAP
0180
0100
0200
0000
0440
0380
0000
0080
0180
0380
0780
0580
0980
1180
1F80
2180
41C0
E3E0
ENDCHAR
STARTCHAR uni1EAF
ENCODING 7855
SWIDTH 500 0
DWIDTH 8 0
BBX 8 15 0 0
BITMAP
06
04
08
00
22
1C
00
1B
66
66
C6
CC
CC
DD
76
ENDCHAR
STARTCHAR uni1EB0
ENCODING 7856
SWIDTH 667 0
DWIDTH 11 0
BBX 11 18 -1 0
BITMAP
0600
0200
0100
0000
0440
0380
0000
0080
0180
0380
0780
0580
0980
1180
1F80
2180
41C0
E3E0
ENDCHAR
STARTCHAR uni1EB1
ENCODING 7857
SWIDTH 500 0
DWIDTH 8 0
BBX 8 15 0 0
BITMAP
30
10
08
00
22
1C
00
1B
66
66
C6
CC
CC
DD
76
ENDCHAR
STARTCHAR uni1EB4
ENCODING 7860
SWIDTH 667 0
DWIDTH 11 0
BBX 11 17 -1 0
BITMAP
0740
0B80
0000
0440
0380
0000
0080
0180
0380
0780
0580
0980
1180
1F80
2180
41C0
E3E0
ENDCHAR
STARTCHAR uni1EB5
ENCODING 7861
SWIDTH 500 0
DWIDTH 8 0
BBX 8 14 0 0
BITMAP
1D
2E
00
22
1C
00
1B
66
66
C6
CC
CC
DD
76
ENDCHAR
STARTCHAR uni1EB6
ENCODING 7862
SWIDTH 667 0
DWIDTH 11 0
BBX 11 17 -1 -3
BITMAP
0880
0700
0000
0080
0180
0380
0780
0580
0980
1180
1F80
2180
41C0
E3E0
0000
0600
0600
ENDCHAR
STARTCHAR uni1EB7
ENCODING 7863
SWIDTH 500 0
DWIDTH 8 0
BBX 8 14 0 -3
BITMAP
22
1C
00
1B
66
66
C6
CC
CC
DD
76
00
18
18
ENDCHAR
STARTCHAR uni1EB8
ENCODING 7864
SWIDTH 667 0
DWIDTH 11 0
BBX 10 14 0 -3
BITMAP
3FC0
1840
1840
3800
3100
3F00
3200
7000
6080
6180
FF00
0000
0C00
0C00
ENDCHAR
STARTCHAR uni1EB9
ENCODING 7865
SWIDTH 444 0
DWIDTH 7 0
BBX 7 11 1 -3
BITMAP
1C
66
44
C8
F0
C4
C8
70
00
30
30
ENDCHAR
STARTCHAR uni1EBC
ENCODING 7868
SWIDTH 667 0
DWIDTH 11 0
BBX 10 14 0 0
BITMAP
0E80
1700
0000
3FC0
1840
1840
3800
3100
3F00
3200
7000
6080
6180
FF00
ENDCHAR
STARTCHAR uni1EBD
ENCODING 7869
SWIDTH 444 0
DWIDTH 7 0
BBX 7 11 1 0
BITMAP
3A
5C
00
1C
66
44
C8
F0
C4
C8
70
ENDCHAR
STARTCHAR uni1EBE
ENCODING 7870
SWIDTH 667 0
DWIDTH 11 0
BBX 10 19 0 0
BITMAP
0300
0200
0400
0000
0200
0700
0880
0000
3FC0
1840
1800
3900
3100
3F00
3200
7200
6080
6180
FF00
ENDCHAR
STARTCHAR uni1EBF
ENCODING 7871
SWIDTH 444 0
DWIDTH 7 0
BBX 7 16 0 0
BITMAP
0C
08
10
00
08
1C
22
00
1C
26
44
C8
F0
C4
C8
70
ENDCHAR
STARTCHAR uni1EC0
ENCODING 7872
SWIDTH 667 0
DWIDTH 11 0
BBX 10 19 0 0
BITMAP
0C00
0400
0200
0000
0200
0700
0880
0000
3FC0
1840
1800
3900
3100
3F00
3200
7200
6080
6180
FF00
ENDCHAR
STARTCHAR uni1EC1
ENCODING 7873
SWIDTH 444 0
DWIDTH 7 0
BBX 7 16 0 0
BITMAP
30
10
08
00
08
1C
22
00
1C
26
44
C8
F0
C4
C8
70
ENDCHAR
STARTCHAR uni1EC4
ENCODING 7876
SWIDTH 667 0
DWIDTH 11 0
BBX 10 18 0 0
BITMAP
0E80
1700
0000
0200
0700
0880
0000
3FC0
1840
1800
3900
3100
3F00
3200
7200
6080
6180
FF00
ENDCHAR
STARTCHAR uni1EC5
ENCODING 7877
SWIDTH 444 0
DWIDTH 7 0
BBX 7 15 0 0
BITMAP
3A
5C
00
08
1C
22
00
1C
26
44
C8
F0
C4
C8
70
ENDCHAR
STARTCHAR uni1EC6
ENCODING 7878
SWIDTH 667 0
DWIDTH 11 0
BBX 10 18 0 -3
BITMAP
0400
0E00
1100
0000
3FC0
1840
1840
3800
3100
3F00
3200
7000
6080
6180
FF00
0000
0C00
0C00
ENDCHAR
STARTCHAR uni1EC7
ENCODING 7879
SWIDTH 444 0
DWIDTH 7 0
BBX 7 15 1 -3
BITMAP
10
38
44
00
1C
66
44
C8
F0
C4
C8
70
00
30
30
ENDCHAR
STARTCHAR uni1ECA
ENCODING 7882
SWIDTH 389 0
DWIDTH 6 0
BBX 6 14 0 -3
BITMAP
3C
18
18
38
30
30
30
70
60
60
F0
00
60
60
ENDCHAR
STARTCHAR uni1ECB
ENCODING 7883
SWIDTH 278 0
DWIDTH 5 0
BBX 4 14 1 -3
BITMAP
30
30
00
60
E0
60
60
C0
C0
D0
E0
00
60
60
ENDCHAR
STARTCHAR uni1ECC
ENCODING 7884
SWIDTH 722 0
DWIDTH 12 0
BBX 10 14 1 -3
BITMAP
0700
1880
30C0
70C0
60C0
E1C0
C180
C380
C300
4600
3800
0000
1800
1800
ENDCHAR
STARTCHAR uni1ECD
ENCODING 7885
SWIDTH 500 0
DWIDTH 8 0
BBX 8 11 0 -3
BITMAP
0C
32
63
63
C6
C6
4C
30
00
18
18
ENDCHAR
STARTCHAR uni1ED0
ENCODING 7888
SWIDTH 722 0
DWIDTH 12 0
BBX 10 19 1 0
BITMAP
0180
0100
0200
0000
0100
0380
0440
0000
0700
1880
30C0
70C0
60C0
E1C0
C180
C380
C300
4600
3800
ENDCHAR
STARTCHAR uni1ED1
ENCODING 7889
SWIDTH 500 0
DWIDTH 8 0
BBX 8 16 0 0
BITMAP
06
04
08
00
04
0E
11
00
0C
32
63
63
C6
C6
4C
30
ENDCHAR
STARTCHAR uni1ED2
ENCODING 7890
SWIDTH 722 0
DWIDTH 12 0
BBX 10 19 1 0
BITMAP
0600
0200
0100
0000
0100
0380
0440
0000
0700
1880
30C0
70C0
60C0
E1C0
C180
C380
C300
4600
3800
ENDCHAR
STARTCHAR uni1ED3
ENCODING 7891
SWIDTH 500 0
DWIDTH 8 0
BBX 8 16 0 0
BITMAP
18
08
04
00
04
0E
11
00
0C
32
63
63
C6
C6
4C
30
ENDCHAR
STARTCHAR uni1ED6
ENCODING 7894
SWIDTH 722 0
DWIDTH 12 0
BBX 10 18 1 0
BITMAP
0740
0B80
0000
0100
0380
0440
0000
0700
1880
30C0
70C0
60C0
E1C0
C180
C380
C300
4600
3800
ENDCHAR
STARTCHAR uni1ED7
ENCODING 7895
SWIDTH 500 0
DWIDTH 8 0
BBX 8 15 0 0
BITMAP
1D
2E
00
04
0E
11
00
0C
32
63
63
C6
C6
4C
30
ENDCHAR
STARTCHAR uni1ED8
ENCODING 7896
SWIDTH 722 0
DWIDTH 12 0
BBX 10 18 1 -3
BITMAP
0400
0E00
1100
0000
0700
1880
30C0
70C0
60C0
E1C0
C180
C380
C300
4600
3800
0000
1800
1800
ENDCHAR
STARTCHAR uni1ED9
ENCODING 7897
SWIDTH 500 0
DWIDTH 8 0
BBX 8 15 0 -3
BITMAP
08
1C
22
00
0C
32
63
63
C6
C6
4C
30
00
18
18
ENDCHAR
STARTCHAR uni1EDA
ENCODING 7898
SWIDTH 722 0
DWIDTH 12 0
BBX 12 15 1 0
BITMAP
0180
0100
0200
0000
0730
18B0
30D0
70E0
60C0
E1C0
C180
C380
C300
4600
3800
ENDCHAR
STARTCHAR uni1EDB
ENCODING 7899
SWIDTH 500 0
DWIDTH 8 0
BBX 11 12 0 0
BITMAP
0300
0200
0400
0000
0C60
3260
6320
6340
C680
C600
4C00
3000
ENDCHAR
STARTCHAR uni1EDC
ENCODING 7900
SWIDTH 722 0
DWIDTH 12 0
BBX 12 15 1 0
BITMAP
0600
0200
0100
0000
0730
18B0
30D0
70E0
60C0
E1C0
C180
C380
C300
4600
3800
ENDCHAR
STARTCHAR uni1EDD
ENCODING 7901
SWIDTH 500 0
DWIDTH 8 0
BBX 11 12 0 0
BITMAP
0C00
0400
0200
0000
0C60
3260
6320
6340
C680
C600
4C00
3000
ENDCHAR
STARTCHAR uni1EE0
ENCODING 7904
SWIDTH 722 0
DWIDTH 12 0
BBX 12 14 1 0
BITMAP
0740
0B80
0000
0730
18B0
30D0
70E0
60C0
E1C0
C180
C380
C300
4600
3800
ENDCHAR
STARTCHAR uni1EE1
ENCODING 7905
SWIDTH 500 0
DWIDTH 8 0
BBX 11 11 0 0
BITMAP
0E80
1700
0000
0C60
3260
6320
6340
C680
C600
4C00
3000
ENDCHAR
STARTCHAR uni1EE2
ENCODING 7906
SWIDTH 722 0
DWIDTH 12 0
BBX 12 14 1 -3
BITMAP
0730
18B0
30D0
70E0
60C0
E1C0
C180
C380
C300
4600
3800
0000
0C00
0C00
ENDCHAR
STARTCHAR uni1EE3
ENCODING 7907
SWIDTH 500 0
DWIDTH 8 0
BBX 11 11 0 -3
BITMAP
0C60
3260
6320
6340
C680
C600
4C00
3000
0000
1800
1800
ENDCHAR
STARTCHAR uni1EE4
ENCODING 7908
SWIDTH 722 0
DWIDTH 12 0
BBX 12 14 1 -3
BITMAP
7CF0
3860
3040
7040
7080
6080
E080
C100
C100
C200
7C00
0000
1800
1800
ENDCHAR
STARTCHAR uni1EE5
ENCODING 7909
SWIDTH 556 0
DWIDTH 9 0
BBX 8 11 1 -3
BITMAP
66
E6
66
66
CC
CC
DD
6E
00
18
18
ENDCHAR
STARTCHAR uni1EE8
ENCODING 7912
SWIDTH 722 0
DWIDTH 12 0
BBX 14 15 1 0
BITMAP
00C0
0080
0100
0000
7CFC
386C
3044
7048
7090
6080
E080
C100
C100
C200
7C00
ENDCHAR
STARTCHAR uni1EE9
ENCODING 7913
SWIDTH 556 0
DWIDTH 9 0
BBX 11 12 1 0
BITMAP
0300
0200
0400
0000
6660
E660
6620
6640
CC80
CC00
DD00
6E00
ENDCHAR
STARTCHAR uni1EEA
ENCODING 7914
SWIDTH 722 0
DWIDTH 12 0
BBX 14 15 1 0
BITMAP
0600
0200
0100
0000
7CFC
386C
3044
7048
7090
6080
E080
C100
C100
C200
7C00
ENDCHAR
STARTCHAR uni1EEB
ENCODING 7915
SWIDTH 556 0
DWIDTH 9 0
BBX 11 12 1 0
BITMAP
1800
0800
0400
0000
6660
E660
6620
6640
CC80
CC00
DD00
6E00
ENDCHAR
STARTCHAR uni1EEE
ENCODING 7918
SWIDTH 722 0
DWIDTH 12 0
BBX 14 14 1 0
BITMAP
03A0
05C0
0000
7CFC
386C
3044
7048
7090
6080
E080
C100
C100
C200
7C00
ENDCHAR
STARTCHAR uni1EEF
ENCODING 7919
SWIDTH 556 0
DWIDTH 9 0
BBX 11 11 1 0
BITMAP
0E80
1700
0000
6660
E660
6620
6640
CC80
CC00
DD00
6E00
ENDCHAR
STARTCHAR uni1EF0
ENCODING 7920
SWIDTH 722 0
DWIDTH 12 0
BBX 14 14 1 -3
BITMAP
7CFC
386C
3044
7048
7090
6080
E080
C100
C100
C200
7C00
0000
1800
1800
ENDCHAR
STARTCHAR uni1EF1
ENCODING 7921
SWIDTH 556 0
DWIDTH 9 0
BBX 11 11 1 -3
BITMAP
6660
E660
6620
6640
CC80
CC00
DD00
6E00
0000
1800
1800
ENDCHAR
STARTCHAR Ygrave
ENCODING 7922
SWIDTH 611 0
DWIDTH 10 0
BBX 9 15 1 0
BITMAP
3000
1000
0800
0000
F380
6100
7200
3400
3800
1800
1800
3000
3000
3000
F800
ENDCHAR
STARTCHAR ygrave
ENCODING 7923
SWIDTH 444 0
DWIDTH 7 0
BBX 8 15 -1 -3
BITMAP
18
08
04
00
13
39
19
1A
1A
1C
0C
08
10
A0
C0
ENDCHAR
STARTCHAR uni1EF4
ENCODING 7924
SWIDTH 611 0
DWIDTH 10 0
BBX 9 14 1 -3
BITMAP
F380
6100
7200
3400
3800
1800
1800
3000
3000
3000
F800
0000
3000
3000
ENDCHAR
STARTCHAR uni1EF5
ENCODING 7925
SWIDTH 444 0
DWIDTH 7 0
BBX 8 14 -1 -6
BITMAP
13
39
19
1A
1A
1C
0C
08
10
A0
C0
00
60
60
ENDCHAR
STARTCHAR uni1EF8
ENCODING 7928
SWIDTH 611 0
DWIDTH 10 0
BBX 9 14 1 0
BITMAP
3A00
5C00
0000
F380
6100
7200
3400
3800
1800
1800
3000
3000
3000
F800
ENDCHAR
STARTCHAR uni1EF9
ENCODING 7929
SWIDTH 444 0
DWIDTH 7 0
BBX 8 14 -1 -3
BITMAP
1D
2E
00
13
39
19
1A
1A
1C
0C
08
10
A0
C0
ENDCHAR
STARTCHAR uni2000
ENCODING 8192
SWIDTH 500 0
DWIDTH 8 0
BBX 1 1 0 0
BITMAP
00
ENDCHAR
STARTCHAR uni2001
ENCODING 8193
SWIDTH 1000 0
DWIDTH 17 0
BBX 1 1 0 0
BITMAP
00
ENDCHAR
STARTCHAR uni2002
ENCODING 8194
SWIDTH 500 0
DWIDTH 8 0
BBX 1 1 0 0
BITMAP
00
ENDCHAR
STARTCHAR uni2003
ENCODING 8195
SWIDTH 1000 0
DWIDTH 17 0
BBX 1 1 0 0
BITMAP
00
ENDCHAR
STARTCHAR uni2004
ENCODING 8196
SWIDTH 333 0
DWIDTH 6 0
BBX 1 1 0 0
BITMAP
00
ENDCHAR
STARTCHAR uni2005
ENCODING 8197
SWIDTH 250 0
DWIDTH 4 0
BBX 1 1 0 0
BITMAP
00
ENDCHAR
STARTCHAR uni2006
ENCODING 8198
SWIDTH 167 0
DWIDTH 3 0
BBX 1 1 0 0
BITMAP
00
ENDCHAR
STARTCHAR uni2007
ENCODING 8199
SWIDTH 500 0
DWIDTH 8 0
BBX 1 1 0 0
BITMAP
00
ENDCHAR
STARTCHAR uni2008
ENCODING 8200
SWIDTH 250 0
DWIDTH 4 0
BBX 1 1 0 0
BITMAP
00
ENDCHAR
STARTCHAR uni2009
ENCODING 8201
SWIDTH 200 0
DWIDTH 3 0
BBX 1 1 0 0
BITMAP
00
ENDCHAR
STARTCHAR uni200A
ENCODING 8202
SWIDTH 100 0
DWIDTH 2 0
BBX 1 1 0 0
BITMAP
00
ENDCHAR
STARTCHAR uni200B
ENCODING 8203
SWIDTH 0 0
DWIDTH 0 0
BBX 1 1 0 0
BITMAP
00
ENDCHAR
STARTCHAR uni2010
ENCODING 8208
SWIDTH 333 0
DWIDTH 5 0
BBX 4 2 1 3
BITMAP
F0
F0
ENDCHAR
STARTCHAR uni2011
ENCODING 8209
SWIDTH 333 0
DWIDTH 5 0
BBX 4 2 1 3
BITMAP
F0
F0
ENDCHAR
STARTCHAR figuredash
ENCODING 8210
SWIDTH 500 0
DWIDTH 8 0
BBX 8 2 0 3
BITMAP
FF
FF
ENDCHAR
STARTCHAR endash
ENCODING 8211
SWIDTH 500 0
DWIDTH 8 0
BBX 8 2 0 3
BITMAP
FF
FF
ENDCHAR
STARTCHAR emdash
ENCODING 8212
SWIDTH 1000 0
DWIDTH 16 0
BBX 16 2 0 3
BITMAP
FFFF
FFFF
ENDCHAR
STARTCHAR afii00208
ENCODING 8213
SWIDTH 1000 0
DWIDTH 16 0
BBX 16 2 0 3
BITMAP
FFFF
FFFF
ENDCHAR
STARTCHAR quoteleft
ENCODING 8216
SWIDTH 333 0
DWIDTH 6 0
BBX 3 5 2 6
BITMAP
20
40
80
C0
C0
ENDCHAR
STARTCHAR quoteright
ENCODING 8217
SWIDTH 333 0
DWIDTH 6 0
BBX 3 5 2 6
BITMAP
60
60
20
40
80
ENDCHAR
STARTCHAR quotesinglbase
ENCODING 8218
SWIDTH 333 0
DWIDTH 6 0
BBX 3 5 1 -3
BITMAP
60
60
20
40
80
ENDCHAR
STARTCHAR quotereversed
ENCODING 8219
SWIDTH 333 0
DWIDTH 6 0
BBX 3 5 2 6
BITMAP
C0
C0
80
40
20
ENDCHAR
STARTCHAR quotedblleft
ENCODING 8220
SWIDTH 500 0
DWIDTH 8 0
BBX 7 5 1 6
BITMAP
22
44
88
CC
CC
ENDCHAR
STARTCHAR quotedblright
ENCODING 8221
SWIDTH 500 0
DWIDTH 8 0
BBX 7 5 1 6
BITMAP
66
66
22
44
88
ENDCHAR
STARTCHAR quotedblbase
ENCODING 8222
SWIDTH 500 0
DWIDTH 8 0
BBX 7 5 -1 -3
BITMAP
66
66
22
44
88
ENDCHAR
STARTCHAR uni201F
ENCODING 8223
SWIDTH 500 0
DWIDTH 8 0
BBX 7 5 1 6
BITMAP
CC
CC
88
44
22
ENDCHAR
STARTCHAR dagger
ENCODING 8224
SWIDTH 500 0
DWIDTH 8 0
BBX 7 14 1 -3
BITMAP
38
38
10
D6
FE
D6
30
20
20
20
60
40
40
40
ENDCHAR
STARTCHAR daggerdbl
ENCODING 8225
SWIDTH 500 0
DWIDTH 8 0
BBX 8 14 0 -3
BITMAP
1C
1C
08
6B
7F
6B
18
10
D6
FE
D6
10
38
38
ENDCHAR
STARTCHAR bullet
ENCODING 8226
SWIDTH 350 0
DWIDTH 6 0
BBX 4 4 1 3
BITMAP
60
F0
F0
60
ENDCHAR
STARTCHAR ellipsis
ENCODING 8230
SWIDTH 1000 0
DWIDTH 15 0
BBX 12 2 1 0
BITMAP
C630
C630
ENDCHAR
STARTCHAR perthousand
ENCODING 8240
SWIDTH 1000 0
DWIDTH 17 0
BBX 16 11 0 0
BITMAP
3100
6F00
CA00
CA00
D400
6986
0B4D
1659
1659
269A
230C
ENDCHAR
STARTCHAR guilsinglleft
ENCODING 8249
SWIDTH 333 0
DWIDTH 6 0
BBX 4 6 1 1
BITMAP
10
30
60
C0
60
20
ENDCHAR
STARTCHAR guilsinglright
ENCODING 8250
SWIDTH 333 0
DWIDTH 6 0
BBX 4 6 1 1
BITMAP
40
60
30
60
C0
80
ENDCHAR
STARTCHAR fraction
ENCODING 8260
SWIDTH 167 0
DWIDTH 3 0
BBX 6 11 -1 0
BITMAP
04
08
08
10
10
20
20
40
40
80
80
ENDCHAR
STARTCHAR oneinferior
ENCODING 8321
SWIDTH 300 0
DWIDTH 5 0
BBX 4 7 0 -3
BITMAP
30
10
30
20
60
40
E0
ENDCHAR
STARTCHAR twoinferior
ENCODING 8322
SWIDTH 300 0
DWIDTH 5 0
BBX 5 7 0 -3
BITMAP
30
58
18
10
20
48
F0
ENDCHAR
STARTCHAR threeinferior
ENCODING 8323
SWIDTH 300 0
DWIDTH 5 0
BBX 5 7 0 -3
BITMAP
30
48
38
10
90
B0
60
ENDCHAR
STARTCHAR uni20A5
ENCODING 8357
SWIDTH 778 0
DWIDTH 13 0
BBX 12 12 1 -2
BITMAP
0080
0100
6FE0
F760
6660
6660
CEC0
CCC0
CCD0
CCE0
0800
0800
ENDCHAR
STARTCHAR uni20A6
ENCODING 8358
SWIDTH 722 0
DWIDTH 12 0
BBX 12 11 0 0
BITMAP
3870
1820
1C20
3FE0
3FC0
2640
3FC0
5FC0
4380
4180
E080
ENDCHAR
STARTCHAR uni20A9
ENCODING 8361
SWIDTH 889 0
DWIDTH 15 0
BBX 15 11 0 0
BITMAP
FBEE
6184
6184
6FE8
7FE8
32D0
3FF0
3FE0
38E0
1840
1040
ENDCHAR
STARTCHAR Euro
ENCODING 8364
SWIDTH 667 0
DWIDTH 11 0
BBX 12 11 -1 0
BITMAP
03D0
0C20
1820
FE00
FE00
7000
FE00
FE00
3040
3080
0F00
ENDCHAR
STARTCHAR uni20AD
ENCODING 8365
SWIDTH 667 0
DWIDTH 11 0
BBX 10 11 0 0
BITMAP
3DC0
1880
1900
3A00
3400
FFC0
3600
7700
6300
6380
F3C0
ENDCHAR
STARTCHAR uni2103
ENCODING 8451
SWIDTH 1047 0
DWIDTH 18 0
BBX 17 11 1 0
BITMAP
701E80
886100
88C100
89C000
718000
038000
038000
038000
018200
018400
007800
ENDCHAR
STARTCHAR uni2109
ENCODING 8457
SWIDTH 1047 0
DWIDTH 18 0
BBX 16 11 1 0
BITMAP
70FF
8861
8861
88E0
70C4
00FC
00C8
01C0
0180
0180
03C0
ENDCHAR
STARTCHAR trademark
ENCODING 8482
SWIDTH 1000 0
DWIDTH 17 0
BBX 16 7 0 4
BITMAP
FD8F
B58E
31D6
3156
3176
3126
7BAF
ENDCHAR
STARTCHAR uni212A
ENCODING 8490
SWIDTH 667 0
DWIDTH 11 0
BBX 10 11 0 0
BITMAP
3DC0
1880
1900
3A00
3400
3E00
3600
7700
6300
6380
F3C0
ENDCHAR
STARTCHAR uni212B
ENCODING 8491
SWIDTH 667 0
DWIDTH 11 0
BBX 11 15 -1 0
BITMAP
0180
0240
0180
0000
0100
0100
0300
0780
0580
0980
1180
1F80
2180
41C0
E3E0
ENDCHAR
STARTCHAR uni2132
ENCODING 8498
SWIDTH 667 0
DWIDTH 11 0
BBX 10 11 0 0
BITMAP
03C0
0180
0180
0380
1300
3F00
2300
0700
8600
8600
FF00
ENDCHAR
STARTCHAR minus
ENCODING 8722
SWIDTH 606 0
DWIDTH 10 0
BBX 7 2 1 4
BITMAP
FE
FE
ENDCHAR
STARTCHAR fraction
ENCODING 8725
SWIDTH 167 0
DWIDTH 3 0
BBX 6 11 -1 0
BITMAP
04
08
08
10
10
20
20
40
40
80
80
ENDCHAR
STARTCHAR periodcentered
ENCODING 8729
SWIDTH 250 0
DWIDTH 4 0
BBX 2 2 1 3
BITMAP
C0
C0
ENDCHAR
STARTCHAR uni2236
ENCODING 8758
SWIDTH 333 0
DWIDTH 5 0
BBX 3 7 1 0
BITMAP
60
60
00
00
00
C0
C0
ENDCHAR
STARTCHAR uni2259
ENCODING 8793
SWIDTH 570 0
DWIDTH 10 0
BBX 7 9 1 2
BITMAP
10
38
44
00
FE
FE
00
FE
FE
ENDCHAR
STARTCHAR uni225A
ENCODING 8794
SWIDTH 570 0
DWIDTH 10 0
BBX 7 9 1 2
BITMAP
44
38
10
00
FE
FE
00
FE
FE
ENDCHAR
STARTCHAR notequal
ENCODING 8800
SWIDTH 570 0
DWIDTH 10 0
BBX 7 12 1 -1
BITMAP
04
08
08
08
FE
FE
10
FE
FE
20
40
40
ENDCHAR
STARTCHAR equivalence
ENCODING 8801
SWIDTH 570 0
DWIDTH 10 0
BBX 7 5 0 2
BITMAP
FE
00
FE
00
FE
ENDCHAR
STARTCHAR uni2262
ENCODING 8802
SWIDTH 570 0
DWIDTH 10 0
BBX 7 12 0 -1
BITMAP
04
08
08
08
FE
10
FE
20
FE
20
40
40
ENDCHAR
STARTCHAR lessequal
ENCODING 8804
SWIDTH 570 0
DWIDTH 10 0
BBX 8 9 1 -1
BITMAP
07
1C
70
C0
70
1C
07
00
FF
ENDCHAR
STARTCHAR greaterequal
ENCODING 8805
SWIDTH 570 0
DWIDTH 10 0
BBX 8 9 1 -1
BITMAP
E0
38
0E
03
0E
38
E0
00
FF
ENDCHAR
STARTCHAR uni226E
ENCODING 8814
SWIDTH 570 0
DWIDTH 10 0
BBX 8 12 1 -1
BITMAP
02
04
04
07
1C
78
C8
70
1C
17
20
20
ENDCHAR
STARTCHAR uni226F
ENCODING 8815
SWIDTH 570 0
DWIDTH 10 0
BBX 8 12 1 -1
BITMAP
02
04
04
E4
38
0E
0B
1E
38
F0
20
20
ENDCHAR
STARTCHAR uni2270
ENCODING 8816
SWIDTH 570 0
DWIDTH 10 0
BBX 8 12 1 -2
BITMAP
02
04
07
1C
78
C8
78
1C
17
10
FF
20
ENDCHAR
STARTCHAR uni2271
ENCODING 8817
SWIDTH 570 0
DWIDTH 10 0
BBX 8 12 1 -2
BITMAP
02
04
E4
3C
0E
0B
0E
38
F0
10
FF
20
ENDCHAR
STARTCHAR fi
ENCODING -1
SWIDTH 556 0
DWIDTH 9 0
BBX 12 14 -3 -3
BITMAP
01C0
0360
0300
0360
0FE0
0660
0660
06C0
0CC0
0CD0
0CE0
1800
D800
7000
ENDCHAR
STARTCHAR fl
ENCODING -1
SWIDTH 556 0
DWIDTH 9 0
BBX 12 14 -3 -3
BITMAP
01F0
0330
0330
0360
0FE0
0660
0660
06C0
0CC0
0CD0
0C60
1800
D800
7000
ENDCHAR
ENDFONT
